<svg width="283" height="35" viewBox="0 0 283 35" fill="none" xmlns="http://www.w3.org/2000/svg">
<g clip-path="url(#clip0)">
<path d="M4.96796 5.00979V7.37854H13.0473V12.3337H4.96796V18.915H0V0.54118L0.460945 0.0546265H13.9052V5.00979H4.96796Z" fill="#393939"/>
<path d="M24.4173 18.886C23.1241 18.886 21.8949 18.6427 20.7425 18.1433C19.5902 17.644 18.5914 16.9782 17.7336 16.1331C16.8757 15.288 16.1971 14.2893 15.7105 13.137C15.2112 11.9846 14.9679 10.7554 14.9679 9.46219C14.9679 8.16898 15.2112 6.93979 15.7105 5.80023C16.2099 4.66067 16.8757 3.66195 17.7336 2.80408C18.5914 1.94621 19.5902 1.2676 20.7425 0.768239C21.8949 0.268881 23.1241 0.0256042 24.4173 0.0256042C25.7105 0.0256042 26.9397 0.268881 28.092 0.768239C29.2444 1.2676 30.2431 1.93341 31.101 2.77848C31.9588 3.62354 32.6375 4.62226 33.124 5.77462C33.6234 6.92699 33.8666 8.15618 33.8666 9.44939C33.8666 10.7426 33.6234 11.9718 33.124 13.1242C32.6247 14.2765 31.9588 15.2752 31.101 16.1203C30.2431 16.9654 29.2444 17.644 28.092 18.1305C26.9397 18.6299 25.7105 18.886 24.4173 18.886ZM24.4301 4.91675C23.8155 4.91675 23.2521 5.03199 22.7143 5.27527C22.1894 5.51854 21.7284 5.85145 21.3443 6.26118C20.9602 6.67091 20.6529 7.15746 20.4352 7.70804C20.2047 8.25861 20.1023 8.83479 20.1023 9.44939C20.1023 10.064 20.2176 10.6402 20.4352 11.1907C20.6657 11.7413 20.9602 12.2279 21.3443 12.6504C21.7284 13.0729 22.1894 13.4058 22.7143 13.6491C23.2393 13.8924 23.8155 14.0076 24.4301 14.0076C25.0447 14.0076 25.608 13.8924 26.1458 13.6491C26.6708 13.4058 27.1317 13.0729 27.5158 12.6504C27.9 12.2279 28.2073 11.7413 28.4121 11.1907C28.6298 10.6402 28.7322 10.064 28.7322 9.44939C28.7322 8.83479 28.6298 8.25861 28.4121 7.70804C28.1945 7.15746 27.9 6.68371 27.5158 6.26118C27.1317 5.85145 26.6708 5.51854 26.1458 5.27527C25.608 5.03199 25.0447 4.91675 24.4301 4.91675Z" fill="#393939"/>
<path d="M46.5939 18.886L43.7898 13.137H40.6272V18.886H35.416V0.0256042H44.7117C45.1214 0.0256042 45.5567 0.0896245 45.9921 0.217665C46.4274 0.345706 46.8628 0.512158 47.2725 0.729827C47.6822 0.947496 48.0663 1.21638 48.4248 1.51087C48.7706 1.81817 49.0778 2.16388 49.3339 2.5352C49.6412 3.00895 49.8717 3.52111 50.0381 4.08449C50.2046 4.63506 50.2814 5.19844 50.2814 5.77462C50.2814 6.69652 50.0894 7.55439 49.6924 8.36104C49.2955 9.1677 48.7577 9.85912 48.0663 10.4097L52.2276 18.8732H46.5939V18.886ZM43.2392 4.4302H40.6144V8.04094H43.2392C43.713 8.04094 44.1099 7.86168 44.4556 7.50317C44.8013 7.14466 44.9678 6.72212 44.9678 6.22277C44.9678 5.72341 44.8013 5.30087 44.4556 4.95516C44.1227 4.60946 43.713 4.4302 43.2392 4.4302Z" fill="#393939"/>
<path d="M66.3377 4.91675H61.7538V18.886H56.6706V4.91675H52.074L51.6515 4.45581V0.0256042H66.773V4.45581L66.3377 4.91675Z" fill="#393939"/>
<path d="M74.6091 0.0256042H69.3979V18.9116H74.6091V0.0256042Z" fill="#393939"/>
<path d="M84.7883 18.9116C83.6231 18.9116 82.458 18.7707 81.3184 18.4762C80.1789 18.1945 79.0777 17.7976 78.0406 17.2855C78.0278 17.2855 77.9894 17.2726 77.9638 17.2598C77.9254 17.247 77.8869 17.2214 77.8229 17.2086C77.7333 17.1574 77.6693 17.0934 77.6181 17.0294C77.5668 16.9654 77.554 16.9141 77.554 16.8757C77.554 16.8629 77.6565 16.6581 77.8485 16.2995C78.0406 15.9282 78.2839 15.5057 78.5528 15.0447C78.8088 14.635 79.0393 14.2253 79.257 13.8412C79.4746 13.457 79.6539 13.1497 79.7947 12.9065C79.9868 12.9961 80.1404 13.0601 80.2429 13.1113C80.3453 13.1626 80.4349 13.201 80.5246 13.265C81.3184 13.6619 82.1123 13.9692 82.9061 14.1869C83.7 14.4045 84.5322 14.507 85.3901 14.507H85.7486C85.8638 14.507 85.9919 14.4942 86.1071 14.4814C86.376 14.4814 86.6193 14.443 86.8369 14.3789C87.0546 14.2893 87.2339 14.1613 87.3875 13.9948C87.5412 13.8284 87.618 13.5851 87.618 13.265C87.618 13.0345 87.5284 12.8424 87.3491 12.7144C87.1698 12.5736 86.9778 12.4711 86.7857 12.3815C86.6577 12.3303 86.5424 12.2791 86.44 12.2407C86.1327 12.1126 85.8254 12.023 85.5053 11.959C85.1852 11.8949 84.8651 11.8309 84.545 11.7541C84.1097 11.6645 83.6872 11.5748 83.2774 11.4724C82.8677 11.37 82.458 11.2676 82.0611 11.1651C81.6513 11.0371 81.2544 10.8962 80.8959 10.7426C80.5374 10.5889 80.1917 10.4097 79.8716 10.2176C79.2058 9.80789 78.668 9.25732 78.2839 8.5787C77.8869 7.90009 77.6949 7.00381 77.6949 5.88985C77.6949 5.096 77.8613 4.32776 78.207 3.59793C78.5527 2.8809 78.9881 2.29192 79.5131 1.83097C80.038 1.37003 80.6398 1.01151 81.28 0.742629C81.933 0.473744 82.5988 0.294487 83.303 0.192055C84.0073 0.0896225 84.7115 0.0384064 85.4157 0.0384064C86.5681 0.0384064 87.7204 0.179251 88.86 0.473744C89.9995 0.768237 91.1263 1.24199 92.2274 1.9334C91.8177 2.63763 91.4208 3.30344 91.0623 3.94364C90.7038 4.58384 90.3196 5.24965 89.8971 5.95387C88.9752 5.48012 88.1173 5.12161 87.3235 4.86553C86.5168 4.60945 85.659 4.46861 84.7499 4.46861C84.5706 4.46861 84.3658 4.46861 84.1481 4.48141C83.9176 4.49421 83.7128 4.53263 83.5207 4.59665C83.3286 4.67347 83.175 4.7759 83.0342 4.91675C82.8933 5.05759 82.8293 5.26246 82.8293 5.54415C82.8293 5.7106 82.8677 5.86425 82.9701 6.00509C83.047 6.14594 83.2006 6.27398 83.4439 6.3636C83.6872 6.46604 84.0201 6.56847 84.4298 6.6709C84.8267 6.77333 85.262 6.88857 85.7358 6.9782C86.2095 7.08063 86.7089 7.19587 87.2083 7.33671C87.7076 7.46475 88.2198 7.6056 88.7447 7.78485C89.2697 7.9513 89.7563 8.16897 90.2172 8.43786C90.6781 8.69394 91.0879 9.00124 91.4592 9.35975C91.8305 9.70546 92.125 10.128 92.3427 10.6145C92.5091 10.9731 92.6115 11.3572 92.6756 11.7797C92.7396 12.1894 92.7652 12.5992 92.7652 12.9961C92.7652 14.1869 92.5219 15.16 92.0482 15.9154C91.5744 16.6709 90.947 17.2726 90.1788 17.7208C89.4105 18.1689 88.5527 18.4762 87.618 18.6555C86.6705 18.8219 85.723 18.9116 84.7883 18.9116Z" fill="#393939"/>
<path d="M113.367 18.8732V18.489C112.087 19.1164 110.742 19.4365 109.346 19.4365C108.028 19.4365 106.811 19.1805 105.672 18.6811C104.532 18.1817 103.559 17.4903 102.727 16.6197C101.894 15.749 101.254 14.7247 100.78 13.5467C100.307 12.3687 100.076 11.1011 100.076 9.75668C100.076 8.42506 100.319 7.17027 100.793 5.99229C101.267 4.81432 101.933 3.77719 102.765 2.89371C103.597 2.01024 104.583 1.30601 105.723 0.781047C106.862 0.268885 108.079 0 109.372 0C110.781 0 112.112 0.320101 113.38 0.9475C114.647 1.5749 115.774 2.50959 116.773 3.72598L112.637 6.58128C111.664 5.54415 110.588 5.01919 109.398 5.01919C108.77 5.01919 108.181 5.14723 107.656 5.40331C107.119 5.65939 106.67 6.0051 106.273 6.44044C105.889 6.86297 105.582 7.37513 105.352 7.95131C105.121 8.5275 105.019 9.12929 105.019 9.76949C105.019 10.3969 105.134 10.9987 105.352 11.5621C105.582 12.1254 105.877 12.6248 106.273 13.0729C106.658 13.5083 107.119 13.854 107.656 14.1101C108.181 14.3661 108.77 14.4814 109.398 14.4814C109.987 14.4814 110.563 14.3533 111.113 14.1101C111.664 13.854 112.138 13.5083 112.535 13.0729H109.731V8.33543H117.759V18.8732H113.367Z" fill="#393939"/>
<path d="M131.497 18.886L128.693 13.137H125.531V18.886H120.319V0.0256042H129.615C130.025 0.0256042 130.46 0.0896245 130.896 0.217665C131.331 0.345706 131.766 0.512158 132.176 0.729827C132.586 0.947496 132.97 1.21638 133.328 1.51087C133.674 1.81817 133.981 2.16388 134.237 2.5352C134.545 3.00895 134.775 3.52111 134.942 4.08449C135.108 4.63506 135.185 5.19844 135.185 5.77462C135.185 6.69652 134.993 7.55439 134.596 8.36104C134.199 9.1677 133.661 9.85912 132.97 10.4097L137.131 18.8732H131.497V18.886ZM128.143 4.4302H125.518V8.04094H128.143C128.616 8.04094 129.013 7.86168 129.359 7.50317C129.705 7.14466 129.871 6.72212 129.871 6.22277C129.871 5.72341 129.705 5.30087 129.359 4.95516C129.013 4.60946 128.616 4.4302 128.143 4.4302Z" fill="#393939"/>
<path d="M146.478 18.886C145.185 18.886 143.956 18.6427 142.803 18.1433C141.651 17.644 140.652 16.9782 139.794 16.1331C138.936 15.288 138.258 14.2893 137.771 13.137C137.272 11.9846 137.029 10.7554 137.029 9.46219C137.029 8.16898 137.272 6.93979 137.771 5.80023C138.271 4.66067 138.936 3.66195 139.794 2.80408C140.652 1.94621 141.651 1.2676 142.803 0.781042C143.956 0.281683 145.185 0.0384064 146.478 0.0384064C147.771 0.0384064 149 0.281683 150.153 0.781042C151.305 1.2804 152.304 1.94621 153.162 2.79128C154.02 3.63635 154.698 4.63506 155.185 5.78743C155.684 6.93979 155.928 8.16898 155.928 9.46219C155.928 10.7554 155.684 11.9846 155.185 13.137C154.686 14.2893 154.02 15.288 153.162 16.1331C152.304 16.9782 151.305 17.6568 150.153 18.1433C149 18.6299 147.784 18.886 146.478 18.886ZM146.491 4.91675C145.876 4.91675 145.313 5.03199 144.775 5.27527C144.25 5.51854 143.789 5.85145 143.405 6.26118C143.021 6.67091 142.714 7.15746 142.496 7.70804C142.266 8.25861 142.163 8.83479 142.163 9.44939C142.163 10.064 142.278 10.6402 142.496 11.1907C142.726 11.7413 143.021 12.2279 143.405 12.6504C143.789 13.0729 144.25 13.4058 144.775 13.6491C145.3 13.8924 145.876 14.0076 146.491 14.0076C147.105 14.0076 147.669 13.8924 148.207 13.6491C148.732 13.4058 149.193 13.0729 149.577 12.6504C149.961 12.2279 150.268 11.7413 150.473 11.1907C150.691 10.6402 150.793 10.064 150.793 9.44939C150.793 8.83479 150.691 8.25861 150.473 7.70804C150.255 7.15746 149.961 6.68371 149.577 6.26118C149.193 5.85145 148.732 5.51854 148.207 5.27527C147.682 5.03199 147.105 4.91675 146.491 4.91675Z" fill="#393939"/>
<path d="M173.354 11.5493C173.354 12.4071 173.213 13.201 172.944 13.9564C172.675 14.7119 172.304 15.3777 171.817 15.9795C171.344 16.5812 170.767 17.1062 170.114 17.5544C169.461 18.0025 168.744 18.3354 167.989 18.5531C167.669 18.6427 167.323 18.7195 166.977 18.7835C166.632 18.8476 166.273 18.886 165.915 18.886C165.556 18.886 165.198 18.8476 164.852 18.7835C164.506 18.7195 164.16 18.6427 163.84 18.5531C163.085 18.3354 162.381 18.0025 161.728 17.5544C161.075 17.1062 160.511 16.5812 160.025 15.9795C159.538 15.3777 159.154 14.699 158.885 13.9564C158.616 13.201 158.475 12.4071 158.475 11.5493V0.0256042H163.738V11.2676C163.738 11.5621 163.802 11.8309 163.917 12.087C164.032 12.3431 164.186 12.5608 164.391 12.74C164.583 12.9193 164.813 13.0729 165.082 13.1882C165.338 13.3034 165.62 13.3546 165.902 13.3546C166.183 13.3546 166.465 13.3034 166.721 13.1882C166.977 13.0729 167.208 12.9321 167.413 12.74C167.605 12.5608 167.771 12.3431 167.886 12.087C168.002 11.8309 168.066 11.5621 168.066 11.2676V0.0256042H173.328V11.5493H173.354Z" fill="#393939"/>
<path d="M184.071 13.2394H180.946V18.8732H175.812V0.0256042H184.045C184.928 0.0256042 185.774 0.192057 186.593 0.524962C187.412 0.857868 188.142 1.33162 188.77 1.9206C189.397 2.5224 189.909 3.22662 190.281 4.03327C190.665 4.83993 190.844 5.71061 190.844 6.6453C190.844 7.60561 190.652 8.47628 190.281 9.28294C189.909 10.0896 189.41 10.781 188.783 11.3572C188.168 11.9334 187.438 12.3943 186.619 12.7272C185.812 13.0729 184.954 13.2394 184.071 13.2394ZM183.904 4.60946H181.036V8.24581H183.904C184.365 8.24581 184.762 8.06655 185.082 7.72084C185.402 7.36233 185.569 6.9654 185.569 6.50446C185.569 6.03071 185.402 5.59537 185.069 5.19844C184.736 4.80152 184.352 4.60946 183.904 4.60946Z" fill="#393939"/>
<path d="M217.579 18.886H213.584L210.934 11.2163L208.258 18.886H204.263L197.669 0.0256042H203.098L206.26 9.06527L209.423 0.0256042H212.444L215.581 9.06527L218.744 0.0256042H224.173L217.579 18.886Z" fill="#393939"/>
<path d="M233.763 18.886L232.867 16.338H227.784L226.887 18.886H221.65L228.168 0.0256042H232.496L239 18.886H233.763ZM230.332 8.01533L229.192 11.6773H231.458L230.332 8.01533Z" fill="#393939"/>
</g>
<path d="M115 28.1657H118.937V28.7112H115.6V31.0026H118.728V31.5482H115.6V34.058H119.083V34.6036H115V28.1657Z" fill="black"/>
<path d="M131.513 33.5921C131.204 34.0105 130.846 34.3105 130.44 34.4924C130.033 34.6742 129.594 34.7651 129.121 34.7651C128.63 34.7651 128.18 34.6817 127.771 34.515C127.362 34.3484 127.012 34.115 126.721 33.815C126.43 33.5149 126.202 33.1573 126.039 32.742C125.875 32.3268 125.793 31.8736 125.793 31.3825C125.793 30.8915 125.875 30.44 126.039 30.0277C126.202 29.6157 126.43 29.2594 126.721 28.9594C127.012 28.6593 127.362 28.4243 127.771 28.2545C128.18 28.0849 128.63 28 129.121 28C129.558 28 129.965 28.0772 130.344 28.2319C130.723 28.3866 131.055 28.6455 131.34 29.0095L130.849 29.4186C130.649 29.1156 130.393 28.8945 130.08 28.7547C129.768 28.6154 129.449 28.5456 129.121 28.5456C128.703 28.5456 128.326 28.6185 127.989 28.7639C127.653 28.9094 127.366 29.1095 127.13 29.364C126.894 29.6187 126.711 29.9189 126.584 30.2642C126.457 30.6096 126.393 30.9826 126.393 31.3827C126.393 31.7827 126.457 32.1555 126.584 32.501C126.711 32.8468 126.893 33.1467 127.13 33.4013C127.366 33.6558 127.653 33.8559 127.989 34.0015C128.326 34.147 128.703 34.2198 129.121 34.2198C129.285 34.2198 129.454 34.2001 129.63 34.1606C129.806 34.1211 129.977 34.0606 130.144 33.9787C130.311 33.8969 130.47 33.7938 130.621 33.6696C130.773 33.5456 130.906 33.3953 131.021 33.2194L131.513 33.5921Z" fill="black"/>
<path d="M148.107 28.9274H148.098L146.934 29.8823L146.598 29.4639L148.189 28.1637H148.653V34.6014H148.107V28.9274Z" fill="black"/>
<path d="M156.518 31.3828C156.518 31.1525 156.529 30.9085 156.55 30.6509C156.571 30.3933 156.61 30.1417 156.668 29.8961C156.726 29.6506 156.805 29.4172 156.904 29.196C157.005 28.9748 157.133 28.7792 157.291 28.6094C157.449 28.4397 157.638 28.3048 157.859 28.2048C158.081 28.1049 158.343 28.0549 158.646 28.0549C158.949 28.0549 159.211 28.1049 159.432 28.2048C159.654 28.3048 159.843 28.4399 160.001 28.6094C160.158 28.7792 160.287 28.9747 160.387 29.196C160.487 29.4172 160.566 29.6506 160.624 29.8961C160.681 30.1415 160.721 30.3933 160.742 30.6509C160.763 30.9087 160.774 31.1525 160.774 31.3828C160.774 31.6191 160.763 31.8648 160.742 32.1194C160.721 32.3739 160.681 32.624 160.624 32.8695C160.566 33.115 160.487 33.3484 160.387 33.5696C160.287 33.791 160.158 33.9865 160.001 34.1561C159.843 34.3261 159.654 34.4608 159.432 34.5607C159.211 34.6607 158.949 34.7107 158.646 34.7107C158.343 34.7107 158.081 34.6607 157.859 34.5607C157.638 34.4608 157.449 34.3259 157.291 34.1561C157.133 33.9865 157.005 33.7912 156.904 33.5696C156.805 33.3484 156.725 33.115 156.668 32.8695C156.61 32.624 156.571 32.3739 156.55 32.1194C156.529 31.8646 156.518 31.6191 156.518 31.3828ZM157.118 31.3828C157.118 31.5526 157.124 31.7389 157.137 31.9421C157.149 32.1452 157.173 32.3513 157.209 32.5604C157.246 32.7696 157.299 32.9741 157.368 33.1742C157.438 33.3741 157.529 33.5516 157.641 33.7061C157.753 33.8605 157.891 33.9849 158.055 34.0788C158.219 34.1728 158.416 34.2197 158.646 34.2197C158.87 34.2197 159.066 34.1728 159.233 34.0788C159.399 33.9849 159.539 33.8605 159.651 33.7061C159.763 33.5514 159.854 33.3741 159.924 33.1742C159.993 32.9741 160.047 32.7696 160.083 32.5604C160.119 32.3513 160.143 32.1452 160.156 31.9421C160.168 31.7389 160.174 31.5526 160.174 31.3828C160.174 31.2192 160.168 31.0344 160.156 30.828C160.143 30.6221 160.119 30.4144 160.083 30.2051C160.047 29.996 159.993 29.7915 159.924 29.5914C159.854 29.3913 159.763 29.214 159.651 29.0596C159.539 28.9049 159.399 28.7809 159.233 28.6868C159.066 28.5929 158.87 28.5459 158.646 28.5459C158.422 28.5459 158.226 28.5929 158.059 28.6868C157.893 28.7809 157.753 28.9051 157.641 29.0596C157.529 29.214 157.438 29.3913 157.368 29.5914C157.299 29.7915 157.245 29.996 157.209 30.2051C157.173 30.4144 157.149 30.6221 157.136 30.828C157.124 31.0342 157.118 31.219 157.118 31.3828Z" fill="black"/>
<path d="M169.203 28.9274H169.194L168.03 29.8823L167.693 29.4639L169.285 28.1637H169.748V34.6014H169.203V28.9274Z" fill="black"/>
<path d="M179.75 28.9274H179.741L178.577 29.8823L178.241 29.4639L179.832 28.1637H180.296V34.6014H179.75V28.9274V28.9274Z" fill="black"/>
<path d="M188.889 33.2558C189.01 33.5649 189.175 33.8028 189.384 33.9697C189.594 34.1365 189.88 34.2198 190.243 34.2198C190.48 34.2198 190.689 34.1834 190.871 34.1108C191.053 34.0379 191.203 33.9379 191.321 33.8106C191.439 33.6834 191.529 33.535 191.589 33.3652C191.65 33.1954 191.68 33.0137 191.68 32.8196C191.68 32.5833 191.63 32.3801 191.53 32.2103C191.43 32.0405 191.3 31.9027 191.139 31.7965C190.978 31.6905 190.797 31.6133 190.594 31.5646C190.39 31.5163 190.186 31.492 189.98 31.492H189.743V30.9463H190.016C190.186 30.9463 190.357 30.9235 190.53 30.8781C190.703 30.8329 190.858 30.7616 190.994 30.6646C191.13 30.5676 191.241 30.4417 191.326 30.2872C191.41 30.1326 191.453 29.9463 191.453 29.728C191.453 29.3824 191.345 29.0992 191.13 28.8776C190.915 28.6564 190.625 28.5459 190.262 28.5459C189.995 28.5459 189.755 28.6139 189.543 28.7503C189.331 28.8868 189.164 29.0702 189.043 29.3004L188.525 29.0095C188.701 28.6762 188.942 28.4335 189.248 28.2819C189.554 28.1305 189.892 28.0546 190.262 28.0546C190.504 28.0546 190.735 28.0895 190.953 28.1591C191.171 28.2289 191.362 28.3318 191.525 28.4682C191.689 28.6047 191.818 28.7758 191.912 28.9821C192.006 29.1883 192.053 29.4307 192.053 29.7096C192.053 30.0611 191.956 30.3719 191.762 30.6414C191.568 30.9113 191.283 31.0978 190.907 31.2007V31.2189C191.113 31.2553 191.299 31.3235 191.466 31.4234C191.633 31.5234 191.777 31.6463 191.898 31.7917C192.02 31.9372 192.113 32.1009 192.18 32.2828C192.247 32.4646 192.28 32.6588 192.28 32.8648C192.28 33.1193 192.239 33.3589 192.157 33.5831C192.075 33.8074 191.951 34.0029 191.785 34.1696C191.618 34.3365 191.41 34.4684 191.162 34.5652C190.913 34.662 190.622 34.7107 190.289 34.7107C189.804 34.7107 189.393 34.6091 189.057 34.4059C188.72 34.203 188.467 33.8831 188.297 33.4467L188.889 33.2558Z" fill="black"/>
<path d="M6.72861 34.2408C6.35258 34.453 5.96313 34.6032 5.56008 34.691C5.15683 34.7788 4.74631 34.8228 4.32792 34.8228C3.8369 34.8228 3.38689 34.7395 2.97751 34.5727C2.56832 34.4062 2.21836 34.1727 1.92742 33.8728C1.6363 33.5727 1.40919 33.215 1.24532 32.7997C1.08165 32.3846 1 31.9313 1 31.4403C1 30.9493 1.08184 30.4977 1.24532 30.0855C1.40899 29.6734 1.6363 29.3171 1.92742 29.0172C2.21855 28.7171 2.56852 28.4821 2.97751 28.3123C3.38689 28.1427 3.83671 28.0578 4.32792 28.0578C5.28563 28.0578 6.05858 28.3548 6.64677 28.9488L6.21037 29.4034C6.1132 29.2882 5.99341 29.1807 5.8512 29.0806C5.70861 28.9806 5.55395 28.8957 5.3874 28.8259C5.22066 28.7563 5.04644 28.7019 4.86437 28.6622C4.68268 28.623 4.50367 28.603 4.32792 28.603C3.90953 28.603 3.53236 28.6758 3.19581 28.8213C2.85945 28.9668 2.57312 29.1669 2.33661 29.4214C2.1003 29.6761 1.91842 29.9762 1.79097 30.3216C1.66371 30.6672 1.60008 31.0399 1.60008 31.4401C1.60008 31.8401 1.66371 32.2129 1.79097 32.5584C1.91842 32.9042 2.10011 33.2041 2.33661 33.4586C2.57312 33.7132 2.85964 33.9132 3.19581 34.0589C3.53236 34.2044 3.90973 34.2772 4.32792 34.2772C4.67348 34.2772 4.99757 34.2498 5.30077 34.1952C5.60378 34.1407 5.87976 34.0405 6.12815 33.8952V31.731H4.58244V31.1854H6.72842V34.2408H6.72861Z" fill="black"/>
<path d="M14.3121 28.2183H18.1674V28.7638H14.9122V31.0552H17.9401V31.6009H14.9122V34.6561H14.3121V28.2183Z" fill="black"/>
<path d="M32.7252 31.4372C32.7252 31.2069 32.7357 30.9629 32.757 30.7053C32.7781 30.4477 32.8175 30.1961 32.8752 29.9505C32.9327 29.705 33.0115 29.4716 33.1115 29.2504C33.2114 29.0292 33.3402 28.8336 33.4981 28.6638C33.6557 28.4941 33.845 28.3592 34.0664 28.2592C34.2875 28.1593 34.5497 28.1093 34.8529 28.1093C35.1561 28.1093 35.4181 28.1593 35.6395 28.2592C35.8607 28.3592 36.0502 28.4943 36.2077 28.6638C36.3653 28.8336 36.4943 29.0291 36.5943 29.2504C36.6944 29.4718 36.7731 29.705 36.8306 29.9505C36.8883 30.1959 36.9276 30.4477 36.9489 30.7053C36.97 30.9631 36.9807 31.2069 36.9807 31.4372C36.9807 31.6735 36.97 31.9192 36.9489 32.1738C36.9276 32.4283 36.8883 32.6784 36.8306 32.9239C36.7729 33.1694 36.6942 33.4028 36.5943 33.624C36.4945 33.8454 36.3655 34.0409 36.2077 34.2105C36.0502 34.3805 35.8607 34.5152 35.6395 34.6151C35.4181 34.7151 35.1561 34.7651 34.8529 34.7651C34.5499 34.7651 34.2877 34.7151 34.0664 34.6151C33.845 34.5152 33.6557 34.3803 33.4981 34.2105C33.3404 34.0409 33.2116 33.8456 33.1115 33.624C33.0115 33.4028 32.9325 33.1694 32.8752 32.9239C32.8175 32.6784 32.7781 32.4283 32.757 32.1738C32.7355 31.9192 32.7252 31.6735 32.7252 31.4372ZM33.3252 31.4372C33.3252 31.607 33.331 31.7933 33.3434 31.9965C33.3553 32.1996 33.3797 32.4057 33.4161 32.6148C33.4525 32.824 33.5056 33.0285 33.5753 33.2286C33.6449 33.4285 33.7358 33.606 33.8481 33.7605C33.9602 33.9151 34.0982 34.0393 34.2619 34.1332C34.4255 34.2272 34.6224 34.2741 34.8527 34.2741C35.077 34.2741 35.2725 34.2272 35.4394 34.1332C35.6059 34.0393 35.7455 33.9149 35.8578 33.7605C35.9699 33.6058 36.0609 33.4285 36.1305 33.2286C36.2001 33.0285 36.2534 32.824 36.2898 32.6148C36.326 32.4057 36.3501 32.1996 36.3624 31.9965C36.3747 31.7933 36.3806 31.607 36.3806 31.4372C36.3806 31.2735 36.3747 31.0888 36.3624 30.8824C36.3503 30.6765 36.3262 30.4688 36.2898 30.2595C36.2534 30.0504 36.2001 29.8459 36.1305 29.6458C36.0609 29.4457 35.9699 29.2684 35.8578 29.114C35.7455 28.9593 35.6061 28.8353 35.4394 28.7412C35.2727 28.6473 35.077 28.6003 34.8527 28.6003C34.6285 28.6003 34.433 28.6473 34.2663 28.7412C34.0995 28.8353 33.96 28.9595 33.8479 29.114C33.7356 29.2686 33.6447 29.4457 33.5752 29.6458C33.5054 29.8459 33.4523 30.0504 33.4159 30.2595C33.3797 30.4688 33.3553 30.6765 33.3433 30.8824C33.3312 31.0888 33.3252 31.2734 33.3252 31.4372Z" fill="black"/>
<path d="M45.4099 28.9819H45.4007L44.237 29.9367L43.9004 29.5183L45.4917 28.2181H45.9556V34.6559H45.4099V28.9819V28.9819Z" fill="black"/>
<path d="M54.548 33.3103C54.6692 33.6194 54.8344 33.8572 55.0436 34.0242C55.2527 34.1909 55.5391 34.2743 55.9028 34.2743C56.1392 34.2743 56.3483 34.2379 56.5301 34.1652C56.7118 34.0924 56.8619 33.9924 56.9803 33.8651C57.0984 33.7378 57.1879 33.5895 57.2485 33.4197C57.3088 33.2499 57.3395 33.0682 57.3395 32.874C57.3395 32.6377 57.2893 32.4346 57.1894 32.2648C57.0896 32.095 56.9591 31.9572 56.7985 31.851C56.6377 31.745 56.456 31.6678 56.2528 31.6191C56.0495 31.5708 55.845 31.5465 55.6391 31.5465H55.4028V31.0008H55.6755C55.8452 31.0008 56.0165 30.978 56.1894 30.9326C56.3621 30.8873 56.5167 30.816 56.6532 30.7191C56.7894 30.6221 56.9 30.4962 56.9849 30.3417C57.0696 30.187 57.1122 30.0007 57.1122 29.7824C57.1122 29.4369 57.0045 29.1536 56.7893 28.9321C56.574 28.7109 56.2846 28.6003 55.9211 28.6003C55.6541 28.6003 55.4147 28.6683 55.2027 28.8048C54.9906 28.9413 54.8236 29.1247 54.7027 29.3549L54.1843 29.0639C54.36 28.7306 54.6011 28.488 54.9072 28.3364C55.2133 28.185 55.5512 28.1091 55.9211 28.1091C56.1635 28.1091 56.3939 28.144 56.612 28.2135C56.8303 28.2833 57.0212 28.3862 57.1848 28.5227C57.3485 28.6591 57.4771 28.8303 57.5712 29.0365C57.6653 29.2427 57.7121 29.4852 57.7121 29.764C57.7121 30.1155 57.6151 30.4264 57.4211 30.6959C57.227 30.9657 56.9422 31.1522 56.5664 31.2551V31.2733C56.7724 31.3097 56.9589 31.378 57.1256 31.4778C57.2922 31.5779 57.4361 31.7007 57.5576 31.8462C57.6787 31.9917 57.7726 32.1553 57.8395 32.3372C57.9062 32.5191 57.9394 32.7133 57.9394 32.9193C57.9394 33.1738 57.8984 33.4134 57.8165 33.6376C57.7347 33.8618 57.6105 34.0573 57.4438 34.2241C57.277 34.391 57.0695 34.5229 56.8209 34.6197C56.5723 34.7164 56.2814 34.7651 55.9479 34.7651C55.463 34.7651 55.0523 34.6635 54.7159 34.4604C54.3794 34.2574 54.1262 33.9376 53.9566 33.5012L54.548 33.3103Z" fill="black"/>
<path d="M64.5049 34.0196L66.9236 31.4646C67.0327 31.3556 67.1419 31.2386 67.251 31.1145C67.36 30.9905 67.4585 30.8599 67.5465 30.7235C67.6343 30.587 67.7056 30.4431 67.76 30.2915C67.8146 30.1401 67.842 29.9764 67.842 29.8005C67.842 29.4246 67.7205 29.1306 67.4783 28.9183C67.2358 28.7063 66.9297 28.6001 66.56 28.6001C66.2266 28.6001 65.9446 28.6971 65.7143 28.8912C65.4839 29.0854 65.3353 29.3399 65.2688 29.655L64.6324 29.5912C64.7353 29.0942 64.9628 28.723 65.3145 28.4773C65.666 28.2317 66.0903 28.1091 66.5874 28.1091C66.836 28.1091 67.0723 28.1468 67.2968 28.2227C67.521 28.2986 67.7178 28.4062 67.8878 28.5455C68.0574 28.6852 68.1924 28.8564 68.2924 29.0593C68.3923 29.2627 68.4423 29.4946 68.4423 29.755C68.4423 30.0036 68.4043 30.234 68.3286 30.446C68.2527 30.6581 68.1527 30.8597 68.0287 31.0506C67.9043 31.2415 67.7617 31.4221 67.6013 31.5917C67.4409 31.7613 67.2786 31.9311 67.1149 32.1007L65.1054 34.165H68.4879V34.6561H64.5053V34.0196H64.5049Z" fill="black"/>
<path d="M77.8802 31.819H77.862C77.753 31.91 77.6058 31.9781 77.421 32.0235C77.2359 32.0689 77.0649 32.0917 76.9072 32.0917C76.6222 32.0917 76.3585 32.0402 76.116 31.937C75.8734 31.8339 75.6645 31.6931 75.4887 31.5142C75.3128 31.3354 75.1763 31.1263 75.0795 30.887C74.9824 30.6474 74.9339 30.3883 74.9339 30.1094C74.9339 29.8183 74.9868 29.5502 75.0931 29.3046C75.1991 29.0591 75.3459 28.8485 75.5341 28.6728C75.7218 28.497 75.9449 28.359 76.2025 28.259C76.46 28.1591 76.7404 28.1091 77.0434 28.1091C77.3466 28.1091 77.6268 28.1591 77.8846 28.259C78.1424 28.359 78.3651 28.497 78.5529 28.6728C78.7408 28.8485 78.8878 29.0591 78.9939 29.3046C79.1001 29.5502 79.1532 29.8185 79.1532 30.1094C79.1532 30.2792 79.1348 30.4398 79.0986 30.5914C79.0624 30.743 79.0137 30.887 78.9531 31.0232C78.8925 31.1597 78.8272 31.2885 78.7574 31.4098C78.6877 31.5311 78.6225 31.6461 78.5619 31.7554L76.8161 34.6561H76.1252L77.8802 31.819ZM77.0436 31.6189C77.2497 31.6189 77.4453 31.5796 77.6303 31.5008C77.8152 31.4221 77.9759 31.3144 78.1123 31.1779C78.2488 31.0414 78.3561 30.8824 78.4353 30.7007C78.5138 30.5188 78.5533 30.3218 78.5533 30.1096C78.5533 29.8854 78.5171 29.6809 78.4443 29.4957C78.3716 29.311 78.2683 29.1519 78.1351 29.0185C78.0019 28.8853 77.8427 28.7822 77.6579 28.7094C77.4728 28.6365 77.2683 28.6003 77.044 28.6003C76.8198 28.6003 76.6153 28.6365 76.4303 28.7094C76.2454 28.7822 76.0863 28.8853 75.9531 29.0185C75.8197 29.1519 75.7166 29.311 75.644 29.4957C75.5711 29.6809 75.5349 29.8854 75.5349 30.1096C75.5349 30.3218 75.5742 30.5188 75.653 30.7007C75.7317 30.8824 75.8395 31.0414 75.9759 31.1779C76.1124 31.3144 76.2715 31.4219 76.4533 31.5008C76.6345 31.5796 76.8313 31.6189 77.0436 31.6189Z" fill="black"/>
<path d="M85.4636 31.4372C85.4636 31.2069 85.4742 30.9629 85.4955 30.7053C85.5165 30.4477 85.556 30.1961 85.6137 29.9505C85.6712 29.705 85.75 29.4716 85.85 29.2504C85.9499 29.0292 86.0787 28.8336 86.2366 28.6638C86.3941 28.4941 86.5835 28.3592 86.8049 28.2592C87.026 28.1593 87.2882 28.1093 87.5914 28.1093C87.8946 28.1093 88.1566 28.1593 88.378 28.2592C88.5991 28.3592 88.7887 28.4943 88.9462 28.6638C89.1038 28.8336 89.2328 29.0291 89.3328 29.2504C89.4328 29.4718 89.5116 29.705 89.5691 29.9505C89.6268 30.1959 89.6661 30.4477 89.6874 30.7053C89.7085 30.9631 89.7192 31.2069 89.7192 31.4372C89.7192 31.6735 89.7085 31.9192 89.6874 32.1738C89.6661 32.4283 89.6268 32.6784 89.5691 32.9239C89.5114 33.1694 89.4327 33.4028 89.3328 33.624C89.2329 33.8454 89.104 34.0409 88.9462 34.2105C88.7887 34.3805 88.5991 34.5152 88.378 34.6151C88.1566 34.7151 87.8946 34.7651 87.5914 34.7651C87.2884 34.7651 87.0262 34.7151 86.8049 34.6151C86.5835 34.5152 86.3941 34.3803 86.2366 34.2105C86.0789 34.0409 85.9501 33.8456 85.85 33.624C85.75 33.4028 85.671 33.1694 85.6137 32.9239C85.556 32.6784 85.5165 32.4283 85.4955 32.1738C85.4742 31.9192 85.4636 31.6735 85.4636 31.4372ZM86.0639 31.4372C86.0639 31.607 86.0697 31.7933 86.0821 31.9965C86.094 32.1996 86.1183 32.4057 86.1548 32.6148C86.1912 32.824 86.2443 33.0285 86.314 33.2286C86.3836 33.4285 86.4744 33.606 86.5867 33.7605C86.6989 33.9151 86.8369 34.0393 87.0005 34.1332C87.1642 34.2272 87.361 34.2741 87.5914 34.2741C87.8157 34.2741 88.0111 34.2272 88.1781 34.1332C88.3446 34.0393 88.4842 33.9149 88.5965 33.7605C88.7086 33.6058 88.7996 33.4285 88.8692 33.2286C88.9388 33.0285 88.992 32.824 89.0284 32.6148C89.0647 32.4057 89.0888 32.1996 89.1011 31.9965C89.1134 31.7933 89.1193 31.607 89.1193 31.4372C89.1193 31.2735 89.1134 31.0888 89.1011 30.8824C89.089 30.6765 89.0649 30.4688 89.0284 30.2595C88.992 30.0504 88.9388 29.8459 88.8692 29.6458C88.7996 29.4457 88.7086 29.2684 88.5965 29.114C88.4842 28.9593 88.3448 28.8353 88.1781 28.7412C88.0113 28.6473 87.8157 28.6003 87.5914 28.6003C87.3672 28.6003 87.1717 28.6473 87.0049 28.7412C86.8382 28.8353 86.6987 28.9595 86.5866 29.114C86.4743 29.2686 86.3834 29.4457 86.3138 29.6458C86.2441 29.8459 86.191 30.0504 86.1546 30.2595C86.1183 30.4688 86.094 30.6765 86.0819 30.8824C86.0699 31.0888 86.0639 31.2734 86.0639 31.4372Z" fill="black"/>
<path d="M218 28.2195H219.855C220.079 28.2195 220.314 28.2454 220.56 28.2965C220.805 28.3483 221.029 28.4376 221.233 28.5649C221.436 28.6921 221.602 28.8663 221.733 29.0877C221.863 29.3091 221.928 29.5866 221.928 29.9197C221.928 30.2108 221.875 30.4623 221.769 30.6744C221.663 30.8866 221.521 31.061 221.342 31.1973C221.163 31.3337 220.957 31.4353 220.723 31.502C220.49 31.5689 220.246 31.6018 219.992 31.6018H218.6V34.657H218V28.2195H218ZM218.6 31.0564H219.964C220.134 31.0564 220.3 31.0368 220.464 30.9974C220.627 30.9579 220.773 30.8943 220.9 30.8063C221.028 30.7185 221.131 30.6018 221.209 30.4563C221.288 30.3108 221.328 30.1322 221.328 29.9197C221.328 29.7138 221.287 29.5379 221.205 29.3924C221.123 29.2468 221.017 29.1272 220.886 29.0333C220.756 28.9394 220.606 28.8711 220.436 28.8288C220.267 28.7862 220.097 28.765 219.927 28.765H218.6V31.0564H218.6Z" fill="black"/>
<path d="M229.039 28.2186H229.639V34.1107H232.639V34.6563H229.039V28.2186Z" fill="black"/>
<path d="M247.306 29.7825C247.306 29.5339 247.352 29.3066 247.443 29.1004C247.534 28.8942 247.658 28.7186 247.816 28.5729C247.973 28.4275 248.16 28.3138 248.375 28.232C248.59 28.1501 248.822 28.1093 249.07 28.1093C249.319 28.1093 249.551 28.1501 249.766 28.232C249.981 28.314 250.168 28.4277 250.325 28.5729C250.483 28.7186 250.607 28.8943 250.698 29.1004C250.789 29.3064 250.834 29.5339 250.834 29.7825C250.834 29.9341 250.81 30.0839 250.762 30.2327C250.713 30.3812 250.645 30.5205 250.557 30.6509C250.469 30.7814 250.361 30.895 250.234 30.9918C250.107 31.089 249.965 31.1586 249.807 31.2011V31.2101C250.013 31.2527 250.193 31.3268 250.348 31.4328C250.503 31.5392 250.633 31.6665 250.739 31.8148C250.845 31.9633 250.925 32.127 250.98 32.3058C251.034 32.4848 251.062 32.6711 251.062 32.8651C251.062 33.1562 251.012 33.4184 250.912 33.6516C250.812 33.8851 250.672 34.0834 250.494 34.2471C250.315 34.4108 250.104 34.538 249.861 34.6289C249.619 34.7199 249.355 34.7653 249.07 34.7653C248.786 34.7653 248.522 34.7199 248.279 34.6289C248.037 34.5378 247.826 34.4106 247.647 34.2471C247.468 34.0834 247.329 33.8849 247.229 33.6516C247.129 33.4182 247.079 33.156 247.079 32.8651C247.079 32.6711 247.106 32.4848 247.161 32.3058C247.215 32.127 247.296 31.9635 247.402 31.8148C247.508 31.6665 247.638 31.5392 247.793 31.4328C247.948 31.3268 248.128 31.2527 248.334 31.2101V31.2011C248.176 31.1586 248.034 31.089 247.907 30.9918C247.779 30.895 247.671 30.7812 247.584 30.6509C247.496 30.5205 247.428 30.3814 247.379 30.2327C247.33 30.0839 247.306 29.9341 247.306 29.7825ZM247.679 32.8649C247.679 33.059 247.712 33.2409 247.779 33.4105C247.846 33.5803 247.94 33.7289 248.061 33.8561C248.182 33.9834 248.328 34.085 248.497 34.1607C248.667 34.2366 248.858 34.2745 249.07 34.2745C249.282 34.2745 249.473 34.2368 249.643 34.1607C249.813 34.085 249.958 33.9834 250.079 33.8561C250.201 33.7289 250.294 33.5803 250.361 33.4105C250.428 33.2409 250.461 33.059 250.461 32.8649C250.461 32.6529 250.425 32.4603 250.352 32.2874C250.279 32.1147 250.181 31.9662 250.057 31.842C249.932 31.7178 249.785 31.6224 249.616 31.5555C249.446 31.4888 249.264 31.4556 249.07 31.4556C248.876 31.4556 248.694 31.489 248.524 31.5555C248.354 31.6224 248.208 31.7178 248.083 31.842C247.959 31.9662 247.861 32.1147 247.788 32.2874C247.716 32.4603 247.679 32.6529 247.679 32.8649ZM247.907 29.7825C247.907 29.9461 247.935 30.0993 247.993 30.2417C248.05 30.3843 248.129 30.5087 248.229 30.6145C248.329 30.7206 248.45 30.8053 248.593 30.869C248.735 30.9326 248.894 30.9644 249.07 30.9644C249.24 30.9644 249.397 30.9326 249.543 30.869C249.689 30.8053 249.811 30.7206 249.911 30.6145C250.011 30.5085 250.09 30.3843 250.148 30.2417C250.205 30.0995 250.234 29.9461 250.234 29.7825C250.234 29.4248 250.123 29.1385 249.902 28.9233C249.681 28.7081 249.403 28.6003 249.07 28.6003C248.737 28.6003 248.459 28.7081 248.238 28.9233C248.017 29.1385 247.907 29.4248 247.907 29.7825Z" fill="black"/>
<path d="M257.626 34.0198L260.045 31.4648C260.154 31.3558 260.263 31.2389 260.372 31.1147C260.481 30.9907 260.58 30.8602 260.668 30.7237C260.756 30.5872 260.827 30.4433 260.881 30.2917C260.936 30.1403 260.963 29.9766 260.963 29.8007C260.963 29.4248 260.842 29.1308 260.6 28.9185C260.357 28.7065 260.051 28.6003 259.681 28.6003C259.348 28.6003 259.066 28.6973 258.836 28.8915C258.605 29.0856 258.457 29.3401 258.39 29.6552L257.754 29.5914C257.857 29.0944 258.084 28.7232 258.436 28.4775C258.787 28.232 259.212 28.1093 259.709 28.1093C259.957 28.1093 260.194 28.1471 260.418 28.223C260.642 28.2989 260.839 28.4064 261.009 28.5457C261.179 28.6854 261.314 28.8566 261.414 29.0595C261.514 29.2629 261.564 29.4948 261.564 29.7553C261.564 30.0038 261.526 30.2342 261.45 30.4462C261.374 30.6583 261.274 30.86 261.15 31.0508C261.026 31.2417 260.883 31.4223 260.723 31.5919C260.562 31.7615 260.4 31.9313 260.236 32.1009L258.227 34.1653H261.609V34.6563H257.627V34.0198H257.626Z" fill="black"/>
<path d="M271.83 28.7094L269.265 34.6561H268.656L271.266 28.7094H268.174V28.2184H271.829V28.7094H271.83Z" fill="black"/>
<path d="M282.377 28.7094L279.813 34.6561H279.204L281.813 28.7094H278.722V28.2184H282.377V28.7094H282.377Z" fill="black"/>
<defs>
<clipPath id="clip0">
<rect width="239" height="19.4365" fill="white"/>
</clipPath>
</defs>
</svg>
