<svg width="36" height="37" viewBox="0 0 36 37" fill="none" xmlns="http://www.w3.org/2000/svg">
<path d="M0 3C0 1.34315 1.34315 0 3 0H36V37H3C1.34315 37 0 35.6569 0 34V3Z" fill="#F2BB2F"/>
<path d="M26.6693 23.1L22.562 19.3655C22.3679 19.189 22.1127 19.0949 21.8505 19.103C21.5882 19.1111 21.3394 19.2208 21.1565 19.4089L18.7386 21.8956C18.1566 21.7844 16.9866 21.4197 15.7822 20.2183C14.5777 19.0129 14.213 17.8398 14.1049 17.2618L16.5895 14.8429C16.7778 14.6601 16.8877 14.4113 16.8958 14.1489C16.9039 13.8866 16.8096 13.6315 16.6329 13.4374L12.8995 9.3311C12.7227 9.13645 12.477 9.01839 12.2146 9.00197C11.9521 8.98556 11.6936 9.07209 11.494 9.2432L9.30139 11.1236C9.1267 11.2989 9.02243 11.5322 9.00837 11.7793C8.99321 12.0319 8.70423 18.0156 13.344 22.6574C17.3917 26.7041 22.462 27.0001 23.8584 27.0001C24.0625 27.0001 24.1878 26.9941 24.2211 26.9921C24.4682 26.9782 24.7014 26.8735 24.8758 26.698L26.7552 24.5044C26.927 24.3054 27.0142 24.0471 26.9981 23.7847C26.9821 23.5223 26.8641 23.2766 26.6693 23.1Z" fill="#FCFCFC"/>
</svg>
