<svg width="25" height="26" viewBox="0 0 25 26" fill="none" xmlns="http://www.w3.org/2000/svg">
<path d="M12.4966 6.08757C8.94743 6.08757 6.08305 8.95261 6.08305 12.5026C6.08305 16.0526 8.94743 18.9177 12.4966 18.9177C16.0458 18.9177 18.9102 16.0526 18.9102 12.5026C18.9102 8.95261 16.0458 6.08757 12.4966 6.08757ZM12.4966 16.6719C10.2014 16.6719 8.32828 14.7984 8.32828 12.5026C8.32828 10.2068 10.2014 8.33331 12.4966 8.33331C14.7919 8.33331 16.665 10.2068 16.665 12.5026C16.665 14.7984 14.7919 16.6719 12.4966 16.6719ZM19.1729 4.32976C18.3442 4.32976 17.675 4.99911 17.675 5.82796C17.675 6.65682 18.3442 7.32617 19.1729 7.32617C20.0016 7.32617 20.6708 6.65995 20.6708 5.82796C20.671 5.63115 20.6324 5.43622 20.5572 5.25434C20.4821 5.07245 20.3717 4.9072 20.2326 4.76803C20.0935 4.62886 19.9282 4.51851 19.7464 4.4433C19.5646 4.3681 19.3697 4.32952 19.1729 4.32976ZM24.9986 12.5026C24.9986 10.7761 25.0142 9.06521 24.9173 7.3418C24.8204 5.34003 24.3638 3.56346 22.9004 2.09966C21.4338 0.632739 19.6607 0.179213 17.6594 0.0822523C15.9333 -0.0147086 14.2228 0.000930337 12.4998 0.000930337C10.7736 0.000930337 9.06313 -0.0147086 7.34013 0.0822523C5.33881 0.179213 3.56265 0.635867 2.09918 2.09966C0.632595 3.56659 0.179172 5.34003 0.0822335 7.3418C-0.0147052 9.06833 0.000930124 10.7792 0.000930124 12.5026C0.000930124 14.226 -0.0147052 15.94 0.0822335 17.6634C0.179172 19.6652 0.635722 21.4418 2.09918 22.9056C3.56577 24.3725 5.33881 24.826 7.34013 24.923C9.06626 25.02 10.7768 25.0043 12.4998 25.0043C14.2259 25.0043 15.9364 25.02 17.6594 24.923C19.6607 24.826 21.4369 24.3694 22.9004 22.9056C24.3669 21.4387 24.8204 19.6652 24.9173 17.6634C25.0174 15.94 24.9986 14.2292 24.9986 12.5026ZM22.2468 19.8779C22.0185 20.4472 21.7433 20.8725 21.3024 21.3104C20.8615 21.7514 20.4394 22.0267 19.8702 22.255C18.2254 22.9087 14.3197 22.7617 12.4966 22.7617C10.6736 22.7617 6.76475 22.9087 5.11992 22.2581C4.55079 22.0298 4.12551 21.7546 3.68773 21.3136C3.24681 20.8725 2.97163 20.4503 2.74336 19.881C2.09293 18.2327 2.2399 14.3261 2.2399 12.5026C2.2399 10.6791 2.09293 6.76942 2.74336 5.12422C2.97163 4.55496 3.24681 4.12959 3.68773 3.6917C4.12864 3.25381 4.55079 2.97544 5.11992 2.74711C6.76475 2.09654 10.6736 2.24354 12.4966 2.24354C14.3197 2.24354 18.2285 2.09654 19.8734 2.74711C20.4425 2.97544 20.8678 3.25068 21.3056 3.6917C21.7465 4.13271 22.0216 4.55496 22.2499 5.12422C22.9004 6.76942 22.7534 10.6791 22.7534 12.5026C22.7534 14.3261 22.9004 18.2327 22.2468 19.8779Z" fill="#F2BB2F"/>
</svg>
