<svg width="474" height="77" viewBox="0 0 474 77" fill="none" xmlns="http://www.w3.org/2000/svg">
<path d="M457.71 23.5067L447.934 9.42018L438.158 23.5067C434.876 28.2353 435.448 34.6372 439.519 38.7078C444.167 43.3539 451.702 43.3539 456.349 38.7078C460.42 34.6372 460.993 28.2353 457.71 23.5067Z" fill="#3797D3"/>
<path d="M444.938 38.7068C443.491 34.6358 443.287 28.2353 444.455 23.5062L447.935 9.41887L438.157 23.5062C434.876 28.2353 435.448 34.6358 439.519 38.7068C441.842 41.0303 444.889 42.1921 447.935 42.1921C446.85 42.1921 445.766 41.0303 444.938 38.7068Z" fill="url(#paint0_linear)"/>
<path d="M447.934 52.1332C433.56 52.1332 421.868 40.4393 421.868 26.0676C421.868 11.6941 433.56 0.000167847 447.934 0.000167847C462.309 0.000167847 474 11.6941 474 26.0676C474 40.4393 462.309 52.1332 447.934 52.1332ZM447.934 2.75973C435.082 2.75973 424.626 13.2154 424.626 26.0673C424.626 38.9177 435.082 49.3731 447.934 49.3731C460.786 49.3731 471.243 38.9174 471.243 26.0673C471.243 13.2154 460.786 2.75973 447.934 2.75973Z" fill="url(#paint1_linear)"/>
<path d="M342.47 0C328.094 0 316.402 11.6942 316.402 26.0682C316.402 40.4389 328.094 52.133 342.47 52.133C356.844 52.133 368.535 40.4389 368.535 26.0682C368.535 11.6942 356.844 0 342.47 0ZM342.47 49.3732C329.617 49.3732 319.16 38.9175 319.16 26.0682C319.16 13.2155 329.617 2.75982 342.47 2.75982C355.321 2.75982 365.778 13.2155 365.778 26.0682C365.778 38.9178 355.321 49.3732 342.47 49.3732Z" fill="url(#paint2_linear)"/>
<path d="M237 52.1267C222.629 52.1267 210.941 40.4359 210.941 26.0677C210.941 11.6977 222.629 0.00660706 237 0.00660706C251.372 0.00660706 263.059 11.6977 263.059 26.0677C263.059 40.4359 251.372 52.1267 237 52.1267ZM237 2.76567C224.152 2.76567 213.698 13.2188 213.698 26.0677C213.698 38.9147 224.152 49.3677 237 49.3677C249.848 49.3677 260.303 38.9147 260.303 26.0677C260.303 13.2188 249.848 2.76567 237 2.76567Z" fill="url(#paint3_linear)"/>
<path d="M131.535 52.1333C117.16 52.1333 105.468 40.4394 105.468 26.0677C105.468 11.6942 117.16 0 131.535 0C145.909 0 157.6 11.6939 157.6 26.0677C157.6 40.4394 145.909 52.1333 131.535 52.1333ZM131.535 2.75982C118.683 2.75982 108.226 13.2155 108.226 26.0677C108.226 38.918 118.683 49.3735 131.535 49.3735C144.386 49.3735 154.843 38.9178 154.843 26.0677C154.843 13.2155 144.386 2.75982 131.535 2.75982Z" fill="url(#paint4_linear)"/>
<path d="M26.0682 0C11.6924 0 0 11.6942 0 26.0682C0 40.4389 11.6924 52.133 26.0682 52.133C40.4424 52.133 52.133 40.4389 52.133 26.0682C52.133 11.6942 40.4422 0 26.0682 0ZM26.0682 49.3732C13.2155 49.3732 2.75829 38.9175 2.75829 26.0682C2.75829 13.2155 13.2155 2.75982 26.0682 2.75982C38.9193 2.75982 49.3765 13.2155 49.3765 26.0682C49.3763 38.9175 38.919 49.3732 26.0682 49.3732Z" fill="url(#paint5_linear)"/>
<path d="M43.4364 32.0902C43.4364 32.0902 43.4127 32.0902 43.3652 32.0886V32.087L43.4364 32.0902Z" fill="url(#paint6_linear)"/>
<path d="M43.4364 32.0902C43.4364 32.0902 43.4127 32.0902 43.3652 32.0886V32.087L43.4364 32.0902Z" fill="url(#paint7_linear)"/>
<path d="M34.6888 40.1827C34.234 40.8468 31.3007 44.9581 26.1622 45.0929C23.5472 45.162 21.4595 44.1711 19.9966 43.1386C18.7739 42.2739 17.9887 41.3796 17.6997 41.051C15.4531 38.493 14.9706 35.6342 14.7075 34.0757C14.2492 31.3535 14.576 29.0775 14.8873 27.68C14.9808 27.3446 15.0534 27.1803 15.1034 27.1871C15.1415 27.1922 15.1674 27.3011 15.1778 27.5157C15.2073 28.0503 15.5999 30.8279 17.2497 31.8533C17.4036 31.9485 17.6751 32.0937 18.0679 32.1887C18.2096 32.2441 18.3429 32.2095 18.3861 32.1298C18.393 32.1161 18.4138 32.0744 18.3947 32.0054C17.8602 31.2253 17.0613 29.8159 16.9315 27.9616C16.8018 26.085 17.4194 24.5528 18.1543 23.1398C21.2605 17.1662 25.3387 16.6265 26.6739 12.0518C26.968 11.0434 27.2395 9.46087 26.8382 7.30085C26.8278 7.25768 26.7379 6.83209 26.9126 6.7267C26.968 6.69394 27.0371 6.7008 27.1064 6.72314C27.2171 6.75946 27.3311 6.84072 27.39 6.88237C28.9172 7.96339 29.3063 10.4106 29.3063 10.4106C30.0915 13.4338 28.4744 14.9731 28.4381 17.4358C28.3568 22.9288 34.8874 23.8006 36.4267 30.627C36.5687 31.2583 37.5616 36.0042 34.6888 40.1827Z" fill="url(#paint8_linear)"/>
<path d="M34.6889 40.1826C34.2341 40.8467 31.3008 44.958 26.1623 45.0928C23.5473 45.1619 21.4596 44.171 19.9967 43.1385C21.9995 42.9965 26.2974 42.2929 29.106 38.7801C31.46 35.8347 31.5601 32.424 31.5791 31.1823C31.6931 23.8802 26.0377 22.092 27.0669 16.2686C27.5633 13.458 29.2927 11.5263 28.3571 8.95619C28.0354 8.07426 27.5374 7.29415 27.1067 6.7233C27.2175 6.75961 27.3315 6.84087 27.3904 6.88252C28.9176 7.96354 29.3066 10.4108 29.3066 10.4108C30.0918 13.4339 28.4747 14.9733 28.4384 17.436C28.3571 22.929 34.8877 23.8007 36.4271 30.6271C36.5688 31.2582 37.5617 36.0041 34.6889 40.1826Z" fill="#F7941D"/>
<path d="M148.903 32.0902C148.903 32.0902 148.88 32.0902 148.832 32.0886V32.087L148.903 32.0902Z" fill="url(#paint9_linear)"/>
<path d="M148.903 32.0902C148.903 32.0902 148.88 32.0902 148.832 32.0886V32.087L148.903 32.0902Z" fill="url(#paint10_linear)"/>
<path d="M148.903 32.0902C148.903 32.0902 148.88 32.0902 148.832 32.0886V32.087L148.903 32.0902Z" fill="url(#paint11_linear)"/>
<path d="M148.903 32.0902C148.903 32.0902 148.88 32.0902 148.832 32.0886V32.087L148.903 32.0902Z" fill="url(#paint12_linear)"/>
<path d="M254.37 32.0902C254.37 32.0902 254.346 32.0902 254.299 32.0886V32.087L254.37 32.0902Z" fill="url(#paint13_linear)"/>
<path d="M254.37 32.0902C254.37 32.0902 254.346 32.0902 254.299 32.0886V32.087L254.37 32.0902Z" fill="url(#paint14_linear)"/>
<path d="M254.37 32.0902C254.37 32.0902 254.346 32.0902 254.299 32.0886V32.087L254.37 32.0902Z" fill="url(#paint15_linear)"/>
<path d="M254.37 32.0902C254.37 32.0902 254.346 32.0902 254.299 32.0886V32.087L254.37 32.0902Z" fill="url(#paint16_linear)"/>
<path d="M359.837 32.0902C359.837 32.0902 359.813 32.0902 359.766 32.0886V32.087L359.837 32.0902Z" fill="url(#paint17_linear)"/>
<path d="M359.837 32.0902C359.837 32.0902 359.813 32.0902 359.766 32.0886V32.087L359.837 32.0902Z" fill="url(#paint18_linear)"/>
<path d="M359.837 32.0902C359.837 32.0902 359.813 32.0902 359.766 32.0886V32.087L359.837 32.0902Z" fill="url(#paint19_linear)"/>
<path d="M359.837 32.0902C359.837 32.0902 359.813 32.0902 359.766 32.0886V32.087L359.837 32.0902Z" fill="url(#paint20_linear)"/>
<path d="M465.304 24.4721C465.304 24.4721 465.28 24.4721 465.232 24.4705V24.4689L465.304 24.4721Z" fill="url(#paint21_linear)"/>
<path d="M465.304 24.4721C465.304 24.4721 465.28 24.4721 465.232 24.4705V24.4689L465.304 24.4721Z" fill="url(#paint22_linear)"/>
<path d="M142.035 30.4001C142.013 30.4303 141.988 30.459 141.96 30.4857C141.956 30.4875 141.956 30.491 141.953 30.4928C141.922 30.5194 141.89 30.5464 141.853 30.5695C141.808 30.5961 141.758 30.621 141.703 30.6408L139.852 31.3054L132.759 33.8499C132.736 33.8588 132.711 33.8659 132.686 33.873C132.661 33.8801 132.636 33.8854 132.611 33.889C132.545 33.9014 132.481 33.905 132.415 33.9014V36.7524H133.298C133.628 37.4312 134.043 38.2882 134.437 39.1204C134.674 39.6212 134.906 40.111 135.105 40.5457C135.135 40.6082 135.164 40.6704 135.191 40.7311C135.246 40.8522 135.298 40.9681 135.347 41.0767C135.372 41.1321 135.395 41.1854 135.419 41.2372C135.442 41.2888 135.463 41.3388 135.485 41.3868C135.506 41.4366 135.526 41.483 135.545 41.5275C135.69 41.8606 135.775 42.0869 135.775 42.1494V42.2009C135.775 42.3096 135.745 42.4094 135.69 42.5003C135.67 42.5341 135.647 42.5663 135.622 42.5948C135.588 42.6321 135.552 42.6679 135.511 42.6999C135.51 42.7017 135.508 42.7035 135.508 42.7035C135.49 42.7177 135.474 42.7284 135.458 42.7408C135.442 42.7515 135.424 42.7621 135.406 42.771C135.396 42.7781 135.383 42.7835 135.373 42.7906C135.369 42.7924 135.365 42.7941 135.36 42.7959C135.328 42.8119 135.294 42.8279 135.259 42.8403C135.234 42.851 135.209 42.8581 135.184 42.8652C135.132 42.8812 135.077 42.8919 135.022 42.9008C134.986 42.9043 134.95 42.9079 134.913 42.9097C134.892 42.9114 134.874 42.9132 134.863 42.9132H134.149V46.2238C134.149 46.3503 134.113 46.4732 134.045 46.5819C134.008 46.6479 133.956 46.7084 133.897 46.7637C133.696 46.9544 133.393 47.0738 133.055 47.0738H130.048C129.444 47.0738 128.954 46.6924 128.954 46.2238V42.9132H128.242C128.176 42.9115 127.887 42.9026 127.645 42.7403C127.629 42.7279 127.613 42.7172 127.597 42.703C127.354 42.5123 127.333 42.27 127.327 42.2004C127.327 42.2004 127.327 42.1755 127.327 42.1489C127.327 41.8853 128.892 38.6298 129.804 36.7516H130.688V33.9007C130.563 33.9095 130.435 33.8935 130.314 33.8491L121.369 30.6401C121 30.5083 120.838 30.1662 121.007 29.8793L121.198 29.5603C121.369 29.2734 121.809 29.1469 122.178 29.2787L129.97 32.0743V30.476C129.97 30.182 130.278 29.9415 130.656 29.9415H130.859V28.5037C130.859 28.2507 131.126 28.044 131.45 28.044H131.652C131.726 28.044 131.798 28.0547 131.864 28.0743C132.085 28.1421 132.243 28.3094 132.243 28.5037V29.9415H132.446C132.824 29.9415 133.132 30.182 133.132 30.476V32.0637L139.31 29.847L140.894 29.2787C140.912 29.2734 140.928 29.2663 140.946 29.2627C140.954 29.2591 140.961 29.2574 140.969 29.2556C141.077 29.2289 141.19 29.2218 141.298 29.2325C141.54 29.2574 141.763 29.3749 141.872 29.5603L142.064 29.8793C142.166 30.0527 142.147 30.2452 142.035 30.4001Z" fill="url(#paint23_linear)"/>
<path d="M131.536 26.7348C131.536 26.7348 131.123 13.7282 143.256 7.70529" stroke="url(#paint24_linear)" stroke-width="3.9331" stroke-miterlimit="10" stroke-linecap="round" stroke-linejoin="round" stroke-dasharray="11.8 11.8"/>
<path d="M133.218 27.2587C133.218 27.2587 138.63 17.482 150.414 15.0378" stroke="url(#paint25_linear)" stroke-width="3.9331" stroke-miterlimit="10" stroke-linecap="round" stroke-linejoin="round" stroke-dasharray="11.8 11.8"/>
<path d="M134.527 28.7424C134.527 28.7424 144.129 23.2431 153.033 26.2109" stroke="url(#paint26_linear)" stroke-width="3.9331" stroke-miterlimit="10" stroke-linecap="round" stroke-linejoin="round" stroke-dasharray="11.8 11.8"/>
<path d="M131.532 26.7348C131.532 26.7348 131.945 13.7282 119.812 7.70529" stroke="url(#paint27_linear)" stroke-width="3.9331" stroke-miterlimit="10" stroke-linecap="round" stroke-linejoin="round" stroke-dasharray="11.8 11.8"/>
<path d="M129.85 27.2587C129.85 27.2587 124.438 17.482 112.653 15.0378" stroke="url(#paint28_linear)" stroke-width="3.9331" stroke-miterlimit="10" stroke-linecap="round" stroke-linejoin="round" stroke-dasharray="11.8 11.8"/>
<path d="M128.541 28.7424C128.541 28.7424 118.939 23.2431 110.035 26.2109" stroke="url(#paint29_linear)" stroke-width="3.9331" stroke-miterlimit="10" stroke-linecap="round" stroke-linejoin="round" stroke-dasharray="11.8 11.8"/>
<path d="M142.034 30.4001C142.013 30.4304 141.988 30.4591 141.96 30.4857C141.956 30.4875 141.956 30.4911 141.952 30.4928C141.922 30.5195 141.89 30.5464 141.853 30.5695C141.808 30.5962 141.758 30.6211 141.703 30.6409L139.852 31.3054L132.759 33.8499L132.757 33.8517C132.734 33.8606 132.711 33.8677 132.685 33.873C132.661 33.8801 132.636 33.8855 132.611 33.889C132.546 33.9015 132.481 33.9068 132.414 33.9032H132.413V36.7524H133.296C133.626 37.4312 134.041 38.2883 134.437 39.1204C134.674 39.6212 134.905 40.111 135.105 40.5458C135.135 40.6083 135.164 40.6705 135.191 40.7312C135.246 40.8523 135.297 40.9681 135.347 41.0768C135.372 41.1321 135.395 41.1855 135.419 41.2373C135.442 41.2888 135.463 41.3388 135.485 41.3868C135.506 41.4366 135.526 41.4831 135.545 41.5275C135.69 41.8607 135.775 42.087 135.775 42.1494V42.201C135.775 42.3097 135.745 42.4095 135.69 42.5004C135.67 42.5341 135.647 42.5664 135.622 42.5948C135.588 42.6322 135.552 42.668 135.511 42.7H135.51C135.508 42.7017 135.508 42.7017 135.508 42.7035C135.49 42.7177 135.474 42.7284 135.458 42.7408C135.442 42.7515 135.424 42.7622 135.406 42.7711C135.395 42.7782 135.383 42.7835 135.372 42.7906C135.369 42.7924 135.365 42.7942 135.36 42.7959C135.328 42.8119 135.294 42.8279 135.258 42.8404C135.233 42.8511 135.209 42.8582 135.183 42.8653C135.132 42.8813 135.077 42.8919 135.021 42.9008C134.986 42.9062 134.948 42.9097 134.911 42.9115C134.89 42.9115 134.874 42.9133 134.863 42.9133H134.147V46.2239C134.147 46.3521 134.109 46.4732 134.045 46.5819C134.008 46.648 133.956 46.7084 133.897 46.7638C133.696 46.9545 133.393 47.0738 133.054 47.0738H131.802V42.7975C131.795 42.6317 131.837 42.5286 131.878 42.4643C132.026 42.2309 132.308 42.2576 132.659 41.9227C132.659 41.9227 132.694 41.8889 132.734 41.846C133.293 41.2436 131.802 37.0049 131.802 37.0049C131.823 34.0274 131.844 31.0518 131.864 28.0743C132.085 28.1421 132.244 28.3095 132.244 28.5037V29.9415H132.447C132.825 29.9415 133.133 30.182 133.133 30.4761V32.0637L139.31 29.8471L140.946 29.2627C140.955 29.2592 140.962 29.2574 140.969 29.2556C141.078 29.229 141.19 29.2219 141.299 29.2325C141.541 29.2574 141.764 29.375 141.872 29.5604L142.065 29.8793C142.166 30.0528 142.147 30.2452 142.034 30.4001Z" fill="url(#paint30_linear)"/>
<path d="M140.946 29.2633L139.311 29.8476L140.895 29.2793C140.912 29.2739 140.928 29.2668 140.946 29.2633Z" fill="url(#paint31_linear)"/>
<path d="M248.893 9.69818C248.328 9.56333 244.424 8.70781 239.075 7.55315C239.008 7.54477 238.91 7.54121 238.797 7.56813C238.598 7.61562 238.47 7.72938 238.414 7.78627C236.571 10.5113 230.458 19.5556 230.34 19.7887C230.285 19.8961 230.308 19.9843 230.308 19.9843C230.337 20.1059 230.445 20.1549 230.458 20.1602C231.36 20.4127 232.262 20.6648 233.164 20.9172C233.179 20.9223 233.251 20.9472 233.291 21.0231C233.34 21.1158 233.301 21.2067 233.296 21.2176C231.752 23.3248 230.209 25.4323 228.665 27.5395C228.643 27.5771 228.557 27.7358 228.608 27.9232C228.661 28.1197 228.842 28.269 229.066 28.299C229.814 28.4211 230.562 28.5435 231.31 28.6657C231.318 28.6662 231.44 28.6741 231.498 28.7787C231.538 28.8495 231.523 28.9201 231.518 28.9384C229.344 33.1193 227.17 37.3001 224.996 41.481C224.916 41.7113 224.978 41.9648 225.151 42.1207C225.308 42.2629 225.528 42.2962 225.703 42.2454C225.782 42.2225 225.841 42.1854 225.878 42.1583C232.093 36.8111 238.308 31.4639 244.523 26.1166C244.547 26.0938 244.582 26.059 244.623 26.0141C244.767 25.8543 245.097 25.4909 244.999 25.2091C244.93 25.0085 244.672 24.9295 244.598 24.9079C243.686 24.7205 242.775 24.5331 241.863 24.3457C241.838 24.3393 241.758 24.3152 241.715 24.2411C241.659 24.1453 241.686 24.0041 241.793 23.9069C243.486 22.2799 245.179 20.6526 246.872 19.0256C246.925 18.9756 247.006 18.8956 247.099 18.791C247.31 18.5533 247.909 17.8829 247.71 17.4984C247.678 17.436 247.608 17.3456 247.433 17.279C246.324 17.0177 245.215 16.7564 244.106 16.4949C244.094 16.4921 243.981 16.4611 243.937 16.3478C243.904 16.2628 243.923 16.1645 243.986 16.0947C247.31 12.6548 248.891 11.0215 248.921 10.9961C248.921 10.9956 248.932 10.9867 248.946 10.9742C248.964 10.9572 248.985 10.9369 249.008 10.9128C249.232 10.671 249.444 10.2076 249.251 9.91809C249.151 9.76649 248.97 9.71646 248.893 9.69818Z" fill="url(#paint32_linear)"/>
<path d="M224.995 41.4836C224.915 41.7136 224.976 41.9671 225.149 42.123C225.307 42.2652 225.526 42.2987 225.702 42.2479C225.78 42.2253 225.84 42.188 225.876 42.1606C232.092 36.8136 238.306 31.4664 244.521 26.1195C244.546 26.0964 244.581 26.0616 244.622 26.0169C244.766 25.8574 245.095 25.4933 244.998 25.2119C244.928 25.0113 244.671 24.9323 244.597 24.9107C243.685 24.7236 242.774 24.5356 241.862 24.3485C241.837 24.3424 241.757 24.3178 241.714 24.2439C241.657 24.1484 241.685 24.0069 241.792 23.9092C243.485 22.2824 245.177 20.6552 246.871 19.0282C246.924 18.9777 247.005 18.8982 247.098 18.7936C247.309 18.5559 247.908 17.886 247.709 17.5005C247.677 17.4385 247.607 17.3481 247.433 17.2814C246.323 17.0203 245.214 16.7587 244.105 16.4977C244.094 16.4944 243.98 16.4634 243.936 16.3509C243.903 16.2653 243.922 16.1673 243.985 16.0972C247.309 12.6574 248.89 11.024 248.92 10.9989C248.921 10.9981 248.931 10.989 248.945 10.9768C248.964 10.96 248.985 10.9395 249.007 10.9156C249.231 10.6738 249.443 10.2101 249.25 9.92091C249.149 9.76906 248.969 9.71877 248.892 9.70049C248.601 9.63116 247.428 9.37189 245.629 8.97879L237.919 16.9063C237.856 16.9764 237.837 17.0744 237.87 17.16C237.914 17.2732 238.027 17.3042 238.039 17.307C239.148 17.5686 240.257 17.8296 241.366 18.0914C241.541 18.158 241.611 18.2481 241.644 18.3111C241.842 18.6955 241.244 19.3657 241.033 19.6036C240.94 19.708 240.858 19.7885 240.805 19.838C239.113 21.4653 237.419 23.0928 235.726 24.7195C235.62 24.8165 235.592 24.958 235.648 25.0534C235.691 25.1283 235.772 25.152 235.797 25.1581C236.708 25.346 237.62 25.5329 238.531 25.7208C238.605 25.7419 238.863 25.8211 238.932 26.0214C239.029 26.3036 238.701 26.667 238.556 26.8264C238.516 26.8714 238.48 26.9062 238.456 26.929C234.902 29.9862 231.349 33.0441 227.794 36.1016C226.861 37.8952 225.928 39.69 224.995 41.4836Z" fill="#FFCD05"/>
<path d="M359.814 16.2986C359.819 16.2171 359.844 15.6745 359.524 15.4863C359.524 15.4863 359.512 15.4797 359.494 15.4711C359.477 15.4629 359.428 15.4454 359.426 15.4446C359.38 15.4307 344.428 12.0942 336.226 10.2643C336.137 10.2478 335.998 10.2295 335.829 10.2412C335.68 10.2516 335.547 10.2798 335.432 10.3212C332.857 11.2445 330.281 12.1678 327.706 13.0911C327.655 13.1211 327.603 13.1511 327.551 13.181C327.551 13.181 327.426 13.2958 327.401 13.5205C327.371 13.7735 327.373 17.9917 327.401 23.7497C327.396 23.8429 327.373 24.0359 327.228 24.1842C327.205 24.2076 327.18 24.2274 327.157 24.2459C326.392 24.5474 325.63 24.8485 324.866 25.15C324.853 25.1599 324.836 25.1715 324.823 25.1883C324.753 25.265 324.758 25.3714 324.76 25.3963C324.761 25.526 324.76 31.0378 324.76 38.5953C324.761 38.6352 324.773 38.7086 324.821 38.7802C324.913 38.9216 325.069 38.9516 325.099 38.9567H359.323C359.358 38.9534 359.551 38.9351 359.691 38.767C359.746 38.702 359.809 38.589 359.814 38.3924C359.822 38.0338 359.822 28.8499 359.814 16.2986ZM344.434 37.8073H337.453V32.1011L344.434 32.4472V37.8073ZM344.434 31.4053L337.453 31.0939V25.2759L344.434 25.9834V31.4053ZM344.434 24.913L337.453 24.169V18.3777L344.434 19.4864V24.913ZM344.434 18.2347L337.453 17.0544V11.6576C339.781 12.1653 342.107 12.6714 344.434 13.1757V18.2347ZM352.176 37.8073H345.712V32.5089L352.176 32.8301V37.8073ZM352.176 31.7499L345.712 31.4619V26.1116L352.176 26.7691V31.7499ZM352.176 25.7371L345.712 25.0479V19.691L352.176 20.7164V25.7371ZM352.176 19.6146L345.712 18.5011V13.4555C347.867 13.9233 350.022 14.3928 352.176 14.8606V19.6146ZM358.692 37.8073H353.34V32.8867L358.692 33.1513V37.8073ZM358.692 32.0393L353.342 31.8014V26.8874C355.123 27.069 356.907 27.2503 358.692 27.4319V32.0393ZM358.692 26.4329L353.342 25.862V20.9031L358.692 21.752V26.4329ZM358.692 20.7913C356.909 20.4767 355.126 20.1639 353.343 19.8492C353.342 19.8492 353.342 19.8492 353.34 19.8492C353.34 19.3116 353.342 18.7723 353.342 18.2344C353.342 17.194 353.342 16.1552 353.343 15.1133C355.126 15.501 356.909 15.8873 358.692 16.2768V20.7913Z" fill="url(#paint33_linear)"/>
<path d="M352.183 19.6161L352.176 19.6143V18.2344H352.182C352.181 18.6941 352.183 19.1567 352.183 19.6161Z" fill="#F0557A"/>
<path d="M352.183 19.6161L352.176 19.6143V14.86C352.178 15.9852 352.178 17.1089 352.182 18.2344C352.181 18.694 352.183 19.1567 352.183 19.6161Z" fill="#F0557A"/>
<path d="M352.183 19.6161L352.176 19.6143V14.86C352.178 15.9852 352.178 17.1089 352.182 18.2344C352.181 18.694 352.183 19.1567 352.183 19.6161Z" fill="url(#paint34_linear)"/>
<path d="M324.821 38.7804C324.914 38.9218 325.07 38.951 325.1 38.9561C328.678 38.9561 332.256 38.9561 335.835 38.9561C335.835 29.3633 335.835 19.7702 335.835 10.1774C335.662 10.2404 335.521 10.2904 335.432 10.3219C332.853 11.2345 330.3 12.2191 327.707 13.0916C327.685 13.099 327.62 13.1266 327.551 13.182C327.551 13.182 327.427 13.2968 327.401 13.521C327.373 13.7744 327.374 17.9916 327.401 23.7502C327.397 23.8429 327.374 24.0361 327.23 24.1839C327.206 24.2081 327.182 24.2289 327.157 24.2462C326.394 24.5473 325.631 24.8485 324.868 25.1499C324.853 25.1596 324.838 25.172 324.823 25.1878C324.754 25.2647 324.759 25.3721 324.76 25.3965C324.762 25.5268 324.761 31.0383 324.76 38.5953C324.763 38.6357 324.774 38.7078 324.821 38.7804Z" fill="url(#paint35_linear)"/>
<path d="M200.064 68.1346H205.281V68.8573H200.859V71.8934H205.003V72.6164H200.859V75.9417H205.473V76.6647H200.064V68.1346Z" fill="black"/>
<path d="M221.943 75.3322C221.533 75.8866 221.059 76.284 220.521 76.525C219.983 76.766 219.401 76.8863 218.774 76.8863C218.123 76.8863 217.527 76.7759 216.985 76.555C216.443 76.3343 215.979 76.025 215.593 75.6276C215.208 75.2299 214.907 74.7561 214.69 74.2058C214.473 73.6557 214.364 73.0552 214.364 72.4046C214.364 71.754 214.473 71.1557 214.69 70.6095C214.907 70.0635 215.208 69.5914 215.593 69.194C215.979 68.7963 216.443 68.485 216.985 68.26C217.527 68.0353 218.123 67.9228 218.774 67.9228C219.352 67.9228 219.892 68.0251 220.394 68.2301C220.896 68.435 221.336 68.7781 221.714 69.2603L221.063 69.8024C220.798 69.401 220.459 69.1079 220.045 68.9228C219.631 68.7382 219.208 68.6458 218.774 68.6458C218.22 68.6458 217.72 68.7423 217.274 68.935C216.828 69.1277 216.449 69.3928 216.136 69.7301C215.823 70.0676 215.581 70.4652 215.413 70.9228C215.244 71.3804 215.16 71.8746 215.16 72.4048C215.16 72.9348 215.244 73.4287 215.413 73.8866C215.581 74.3447 215.822 74.7421 216.136 75.0793C216.449 75.4165 216.829 75.6817 217.274 75.8747C217.72 76.0674 218.22 76.1639 218.774 76.1639C218.991 76.1639 219.216 76.1377 219.449 76.0854C219.681 76.0331 219.908 75.9529 220.129 75.8444C220.35 75.736 220.561 75.5994 220.762 75.4348C220.962 75.2705 221.139 75.0714 221.292 74.8383L221.943 75.3322Z" fill="black"/>
<path d="M243.93 69.1517H243.918L242.376 70.4168L241.93 69.8625L244.039 68.1397H244.653V76.6696H243.93V69.1517Z" fill="black"/>
<path d="M255.074 72.4049C255.074 72.0997 255.088 71.7764 255.116 71.4351C255.144 71.0938 255.196 70.7604 255.273 70.4351C255.349 70.1098 255.454 69.8005 255.586 69.5075C255.719 69.2144 255.889 68.9552 256.098 68.7302C256.307 68.5054 256.558 68.3266 256.851 68.1941C257.144 68.0618 257.492 67.9955 257.893 67.9955C258.295 67.9955 258.642 68.0618 258.936 68.1941C259.229 68.3266 259.48 68.5057 259.689 68.7302C259.897 68.9552 260.068 69.2142 260.201 69.5075C260.333 69.8005 260.438 70.1098 260.514 70.4351C260.59 70.7602 260.642 71.0938 260.67 71.4351C260.698 71.7767 260.713 72.0997 260.713 72.4049C260.713 72.718 260.698 73.0436 260.67 73.3808C260.642 73.718 260.59 74.0494 260.514 74.3747C260.437 74.7 260.333 75.0093 260.201 75.3024C260.068 75.5957 259.897 75.8547 259.689 76.0794C259.48 76.3047 259.229 76.4832 258.936 76.6155C258.642 76.7481 258.295 76.8143 257.893 76.8143C257.492 76.8143 257.144 76.7481 256.851 76.6155C256.558 76.4832 256.307 76.3044 256.098 76.0794C255.889 75.8547 255.719 75.5959 255.586 75.3024C255.454 75.0093 255.349 74.7 255.273 74.3747C255.196 74.0494 255.144 73.718 255.116 73.3808C255.088 73.0433 255.074 72.718 255.074 72.4049ZM255.869 72.4049C255.869 72.6299 255.877 72.8767 255.894 73.1459C255.91 73.4151 255.942 73.6881 255.99 73.9651C256.038 74.2424 256.108 74.5134 256.201 74.7785C256.293 75.0434 256.414 75.2785 256.562 75.4832C256.711 75.6878 256.894 75.8527 257.11 75.9771C257.327 76.1015 257.588 76.1637 257.894 76.1637C258.191 76.1637 258.449 76.1015 258.671 75.9771C258.892 75.8527 259.076 75.6878 259.225 75.4832C259.374 75.2782 259.494 75.0434 259.587 74.7785C259.679 74.5134 259.749 74.2424 259.797 73.9651C259.845 73.6881 259.877 73.4151 259.894 73.1459C259.91 72.8767 259.918 72.6299 259.918 72.4049C259.918 72.1881 259.91 71.9433 259.894 71.6698C259.878 71.397 259.846 71.1218 259.797 70.8445C259.749 70.5674 259.679 70.2965 259.587 70.0313C259.494 69.7662 259.374 69.5313 259.225 69.3267C259.076 69.1217 258.892 68.9574 258.671 68.8328C258.45 68.7083 258.191 68.6461 257.894 68.6461C257.596 68.6461 257.337 68.7083 257.116 68.8328C256.895 68.9574 256.71 69.122 256.562 69.3267C256.413 69.5313 256.293 69.7662 256.201 70.0313C256.108 70.2965 256.038 70.5674 255.99 70.8445C255.942 71.1218 255.91 71.397 255.893 71.6698C255.877 71.943 255.869 72.1878 255.869 72.4049Z" fill="black"/>
<path d="M271.881 69.1517H271.869L270.327 70.4168L269.881 69.8625L271.989 68.1397H272.604V76.6696H271.881V69.1517Z" fill="black"/>
<path d="M285.856 69.1517H285.844L284.302 70.4168L283.856 69.8625L285.965 68.1397H286.579V76.6696H285.856V69.1517Z" fill="black"/>
<path d="M297.965 74.8866C298.125 75.2962 298.344 75.6113 298.621 75.8325C298.898 76.0535 299.278 76.1639 299.759 76.1639C300.073 76.1639 300.35 76.1157 300.591 76.0194C300.832 75.9229 301.03 75.7904 301.187 75.6218C301.344 75.4531 301.462 75.2566 301.543 75.0316C301.623 74.8066 301.663 74.5659 301.663 74.3086C301.663 73.9955 301.597 73.7264 301.464 73.5014C301.332 73.2764 301.159 73.0938 300.946 72.9531C300.733 72.8127 300.492 72.7103 300.223 72.6458C299.954 72.5818 299.683 72.5496 299.41 72.5496H299.097V71.8266H299.458C299.683 71.8266 299.91 71.7964 300.139 71.7362C300.368 71.6763 300.573 71.5818 300.754 71.4533C300.934 71.3248 301.081 71.158 301.193 70.9533C301.306 70.7484 301.362 70.5016 301.362 70.2123C301.362 69.7545 301.219 69.3792 300.934 69.0856C300.649 68.7926 300.266 68.646 299.784 68.646C299.43 68.646 299.113 68.7362 298.832 68.917C298.551 69.0978 298.33 69.3408 298.169 69.6458L297.483 69.2603C297.715 68.8187 298.035 68.4972 298.44 68.2964C298.846 68.0957 299.294 67.9952 299.784 67.9952C300.105 67.9952 300.41 68.0414 300.699 68.1336C300.988 68.226 301.241 68.3624 301.458 68.5432C301.675 68.724 301.846 68.9508 301.97 69.224C302.095 69.4972 302.157 69.8185 302.157 70.188C302.157 70.6537 302.028 71.0656 301.771 71.4226C301.514 71.7802 301.137 72.0272 300.639 72.1636V72.1877C300.912 72.236 301.159 72.3264 301.38 72.4587C301.6 72.5912 301.791 72.754 301.952 72.9468C302.113 73.1395 302.237 73.3564 302.325 73.5974C302.414 73.8383 302.458 74.0956 302.458 74.3686C302.458 74.7058 302.404 75.0232 302.295 75.3203C302.187 75.6174 302.022 75.8765 301.801 76.0974C301.58 76.3186 301.305 76.4933 300.976 76.6215C300.647 76.7498 300.261 76.8143 299.819 76.8143C299.177 76.8143 298.633 76.6797 298.187 76.4105C297.741 76.1416 297.406 75.7177 297.181 75.1395L297.965 74.8866Z" fill="black"/>
<path d="M8.20459 76.1874C7.70636 76.4686 7.19035 76.6676 6.65632 76.7839C6.12203 76.9003 5.57809 76.9587 5.02374 76.9587C4.37315 76.9587 3.7769 76.8482 3.23448 76.6273C2.69232 76.4066 2.22863 76.0973 1.84315 75.6999C1.45741 75.3022 1.15649 74.8283 0.939376 74.2781C0.722512 73.728 0.614334 73.1275 0.614334 72.4769C0.614334 71.8263 0.722766 71.228 0.939376 70.6818C1.15624 70.1358 1.45741 69.6637 1.84315 69.2663C2.22888 68.8686 2.69258 68.5573 3.23448 68.3323C3.7769 68.1076 4.37289 67.9951 5.02374 67.9951C6.29268 67.9951 7.31682 68.3887 8.09616 69.1757L7.51794 69.778C7.38919 69.6254 7.23048 69.4829 7.04205 69.3504C6.85312 69.2178 6.64819 69.1053 6.42752 69.0129C6.20659 68.9207 5.97576 68.8486 5.73452 68.796C5.49378 68.744 5.2566 68.7176 5.02374 68.7176C4.46939 68.7176 3.96964 68.814 3.52372 69.0068C3.07806 69.1995 2.69867 69.4646 2.38531 69.8019C2.0722 70.1394 1.83121 70.537 1.66234 70.9946C1.49373 71.4525 1.40942 71.9464 1.40942 72.4766C1.40942 73.0066 1.49373 73.5005 1.66234 73.9584C1.83121 74.4165 2.07195 74.8139 2.38531 75.1511C2.69867 75.4883 3.07831 75.7535 3.52372 75.9464C3.96964 76.1392 4.46964 76.2357 5.02374 76.2357C5.48159 76.2357 5.91101 76.1994 6.31274 76.127C6.71422 76.0549 7.07989 75.9221 7.409 75.7296V72.8621H5.36097V72.1391H8.20433V76.1874H8.20459Z" fill="black"/>
<path d="M18.2525 68.212H23.3607V68.9347H19.0476V71.9708H23.0596V72.6938H19.0476V76.7418H18.2525V68.212Z" fill="black"/>
<path d="M42.6493 72.4769C42.6493 72.1717 42.6633 71.8484 42.6915 71.5071C42.7194 71.1658 42.7717 70.8324 42.8482 70.5071C42.9244 70.1818 43.0287 69.8725 43.1613 69.5795C43.2936 69.2864 43.4642 69.0272 43.6735 68.8022C43.8822 68.5774 44.1331 68.3987 44.4264 68.2661C44.7195 68.1338 45.0668 68.0675 45.4686 68.0675C45.8703 68.0675 46.2174 68.1338 46.5107 68.2661C46.8038 68.3987 47.0549 68.5777 47.2637 68.8022C47.4724 69.0272 47.6433 69.2862 47.7759 69.5795C47.9084 69.8728 48.0128 70.1818 48.089 70.5071C48.1654 70.8322 48.2175 71.1658 48.2457 71.5071C48.2736 71.8487 48.2878 72.1717 48.2878 72.4769C48.2878 72.7901 48.2736 73.1156 48.2457 73.4528C48.2175 73.7901 48.1654 74.1215 48.089 74.4467C48.0125 74.772 47.9082 75.0813 47.7759 75.3744C47.6436 75.6677 47.4727 75.9267 47.2637 76.1514C47.0549 76.3767 46.8038 76.5552 46.5107 76.6875C46.2174 76.8201 45.8703 76.8863 45.4686 76.8863C45.0671 76.8863 44.7197 76.8201 44.4264 76.6875C44.1331 76.5552 43.8822 76.3764 43.6735 76.1514C43.4645 75.9267 43.2938 75.6679 43.1613 75.3744C43.0287 75.0813 42.9241 74.772 42.8482 74.4467C42.7717 74.1215 42.7194 73.7901 42.6915 73.4528C42.6631 73.1156 42.6493 72.7901 42.6493 72.4769ZM43.4444 72.4769C43.4444 72.7019 43.452 72.9488 43.4685 73.2179C43.4843 73.4871 43.5165 73.7601 43.5648 74.0371C43.613 74.3145 43.6834 74.5854 43.7758 74.8505C43.868 75.1154 43.9884 75.3505 44.1372 75.5552C44.2857 75.7601 44.4686 75.9247 44.6854 76.0491C44.9023 76.1735 45.1631 76.2358 45.4683 76.2358C45.7654 76.2358 46.0245 76.1735 46.2456 76.0491C46.4663 75.9247 46.6512 75.7599 46.8 75.5552C46.9485 75.3503 47.0692 75.1154 47.1613 74.8505C47.2535 74.5854 47.3241 74.3145 47.3724 74.0371C47.4204 73.7601 47.4524 73.4871 47.4686 73.2179C47.4849 72.9488 47.4927 72.7019 47.4927 72.4769C47.4927 72.2601 47.4849 72.0153 47.4686 71.7418C47.4526 71.4691 47.4206 71.1938 47.3724 70.9165C47.3241 70.6394 47.2535 70.3685 47.1613 70.1034C47.0692 69.8382 46.9485 69.6034 46.8 69.3987C46.6512 69.1938 46.4666 69.0295 46.2456 68.9048C46.0247 68.7803 45.7654 68.7181 45.4683 68.7181C45.1712 68.7181 44.9122 68.7803 44.6913 68.9048C44.4703 69.0295 44.2855 69.194 44.1369 69.3987C43.9881 69.6036 43.8677 69.8382 43.7756 70.1034C43.6831 70.3685 43.6128 70.6394 43.5645 70.9165C43.5165 71.1938 43.4843 71.4691 43.4683 71.7418C43.4523 72.0153 43.4444 72.2598 43.4444 72.4769Z" fill="black"/>
<path d="M59.4563 69.2236H59.4441L57.9022 70.4888L57.4563 69.9344L59.5647 68.2117H60.1793V76.7415H59.4563V69.2236Z" fill="black"/>
<path d="M71.5641 74.9587C71.7246 75.3683 71.9435 75.6834 72.2208 75.9046C72.4978 76.1255 72.8772 76.236 73.3592 76.236C73.6723 76.236 73.9494 76.1877 74.1904 76.0915C74.4311 75.995 74.6299 75.8625 74.7869 75.6938C74.9433 75.5252 75.0619 75.3287 75.1421 75.1037C75.2221 74.8787 75.2627 74.638 75.2627 74.3807C75.2627 74.0676 75.1962 73.7984 75.0639 73.5734C74.9316 73.3485 74.7587 73.1659 74.5459 73.0252C74.3328 72.8848 74.0921 72.7824 73.8229 72.7179C73.5535 72.6539 73.2825 72.6217 73.0098 72.6217H72.6967V71.8987H73.058C73.2828 71.8987 73.5098 71.8685 73.7388 71.8083C73.9676 71.7484 74.1726 71.6539 74.3534 71.5254C74.5339 71.3969 74.6805 71.2301 74.793 71.0254C74.9052 70.8205 74.9616 70.5737 74.9616 70.2844C74.9616 69.8266 74.8189 69.4512 74.5337 69.1577C74.2485 68.8646 73.8651 68.7181 73.3833 68.7181C73.0296 68.7181 72.7124 68.8083 72.4316 68.9891C72.1505 69.1699 71.9293 69.4129 71.769 69.7179L71.0821 69.3324C71.315 68.8908 71.6344 68.5693 72.04 68.3684C72.4455 68.1678 72.8932 68.0673 73.3833 68.0673C73.7046 68.0673 74.0098 68.1135 74.2988 68.2057C74.588 68.2981 74.8409 68.4345 75.0578 68.6153C75.2747 68.7961 75.4451 69.0228 75.5698 69.2961C75.6944 69.5693 75.7564 69.8906 75.7564 70.26C75.7564 70.7258 75.6279 71.1376 75.3709 71.4947C75.1137 71.8522 74.7363 72.0993 74.2383 72.2357V72.2598C74.5113 72.3081 74.7584 72.3985 74.9793 72.5308C75.2 72.6633 75.3907 72.8261 75.5517 73.0188C75.7122 73.2116 75.8366 73.4284 75.9253 73.6694C76.0136 73.9104 76.0576 74.1677 76.0576 74.4406C76.0576 74.7779 76.0032 75.0953 75.8948 75.3924C75.7864 75.6895 75.6218 75.9485 75.4009 76.1695C75.18 76.3906 74.9049 76.5654 74.5756 76.6936C74.2462 76.8218 73.8607 76.8863 73.4189 76.8863C72.7764 76.8863 72.2322 76.7518 71.7866 76.4826C71.3406 76.2137 71.0052 75.7898 70.7804 75.2116L71.5641 74.9587Z" fill="black"/>
<path d="M84.7567 75.8985L87.9614 72.5133C88.1059 72.3688 88.2507 72.2139 88.3951 72.0493C88.5396 71.885 88.6702 71.7121 88.7867 71.5313C88.903 71.3505 88.9975 71.1597 89.0696 70.9589C89.142 70.7583 89.1783 70.5414 89.1783 70.3083C89.1783 69.8103 89.0173 69.4208 88.6963 69.1394C88.3751 68.8585 87.9695 68.7179 87.4797 68.7179C87.0378 68.7179 86.6643 68.8464 86.3591 69.1036C86.0538 69.3608 85.857 69.6981 85.7689 70.1155L84.9256 70.031C85.0619 69.3725 85.3634 68.8806 85.8293 68.5551C86.2951 68.2298 86.8573 68.0673 87.516 68.0673C87.8454 68.0673 88.1585 68.1173 88.4558 68.2179C88.753 68.3184 89.0137 68.4609 89.239 68.6455C89.4637 68.8306 89.6425 69.0574 89.7751 69.3263C89.9074 69.5957 89.9736 69.903 89.9736 70.2481C89.9736 70.5775 89.9234 70.8827 89.8231 71.1636C89.7225 71.4447 89.5899 71.7118 89.4256 71.9647C89.2608 72.2177 89.0719 72.4569 88.8593 72.6816C88.6468 72.9063 88.4317 73.1313 88.2149 73.3561L85.5523 76.0913H90.0341V76.7418H84.7572V75.8985H84.7567Z" fill="black"/>
<path d="M102.479 72.9828H102.454C102.31 73.1034 102.115 73.1935 101.87 73.2537C101.625 73.3139 101.398 73.3441 101.189 73.3441C100.812 73.3441 100.462 73.2758 100.141 73.1392C99.8196 73.0026 99.5428 72.8159 99.31 72.579C99.0768 72.3421 98.896 72.065 98.7678 71.7479C98.639 71.4304 98.5748 71.0871 98.5748 70.7176C98.5748 70.3319 98.6449 69.9766 98.7858 69.6513C98.9262 69.326 99.1208 69.047 99.3701 68.8141C99.6187 68.5812 99.9143 68.3984 100.256 68.2659C100.597 68.1336 100.968 68.0673 101.37 68.0673C101.772 68.0673 102.143 68.1336 102.484 68.2659C102.826 68.3984 103.121 68.5812 103.37 68.8141C103.619 69.047 103.814 69.326 103.954 69.6513C104.095 69.9766 104.165 70.3322 104.165 70.7176C104.165 70.9426 104.141 71.1554 104.093 71.3563C104.045 71.5572 103.98 71.7479 103.9 71.9284C103.82 72.1092 103.733 72.2799 103.641 72.4406C103.548 72.6014 103.462 72.7537 103.382 72.8985L101.069 76.7418H100.153L102.479 72.9828ZM101.37 72.7177C101.643 72.7177 101.902 72.6656 102.147 72.5612C102.393 72.4569 102.605 72.3142 102.786 72.1333C102.967 71.9525 103.109 71.7418 103.214 71.501C103.318 71.2601 103.37 70.999 103.37 70.7179C103.37 70.4208 103.322 70.1498 103.226 69.9045C103.13 69.6597 102.993 69.449 102.816 69.2722C102.64 69.0957 102.429 68.9591 102.184 68.8626C101.939 68.7661 101.668 68.7181 101.371 68.7181C101.074 68.7181 100.803 68.7661 100.558 68.8626C100.313 68.9591 100.102 69.0957 99.9252 69.2722C99.7485 69.449 99.6119 69.6597 99.5156 69.9045C99.4191 70.1498 99.3711 70.4208 99.3711 70.7179C99.3711 70.999 99.4232 71.2601 99.5276 71.501C99.6319 71.7418 99.7747 71.9525 99.9555 72.1333C100.136 72.3142 100.347 72.4566 100.588 72.5612C100.828 72.6656 101.089 72.7177 101.37 72.7177Z" fill="black"/>
<path d="M112.526 72.4769C112.526 72.1717 112.54 71.8484 112.569 71.5071C112.597 71.1658 112.649 70.8324 112.725 70.5071C112.801 70.1818 112.906 69.8725 113.038 69.5795C113.171 69.2864 113.341 69.0272 113.551 68.8022C113.759 68.5774 114.01 68.3987 114.304 68.2661C114.597 68.1338 114.944 68.0675 115.346 68.0675C115.747 68.0675 116.095 68.1338 116.388 68.2661C116.681 68.3987 116.932 68.5777 117.141 68.8022C117.35 69.0272 117.52 69.2862 117.653 69.5795C117.786 69.8728 117.89 70.1818 117.966 70.5071C118.043 70.8322 118.095 71.1658 118.123 71.5071C118.151 71.8487 118.165 72.1717 118.165 72.4769C118.165 72.7901 118.151 73.1156 118.123 73.4528C118.095 73.7901 118.043 74.1215 117.966 74.4467C117.89 74.772 117.785 75.0813 117.653 75.3744C117.521 75.6677 117.35 75.9267 117.141 76.1514C116.932 76.3767 116.681 76.5552 116.388 76.6875C116.095 76.8201 115.747 76.8863 115.346 76.8863C114.944 76.8863 114.597 76.8201 114.304 76.6875C114.01 76.5552 113.759 76.3764 113.551 76.1514C113.342 75.9267 113.171 75.6679 113.038 75.3744C112.906 75.0813 112.801 74.772 112.725 74.4467C112.649 74.1215 112.597 73.7901 112.569 73.4528C112.54 73.1156 112.526 72.7901 112.526 72.4769ZM113.322 72.4769C113.322 72.7019 113.329 72.9488 113.346 73.2179C113.362 73.4871 113.394 73.7601 113.442 74.0371C113.49 74.3145 113.561 74.5854 113.653 74.8505C113.745 75.1154 113.866 75.3505 114.015 75.5552C114.163 75.7601 114.346 75.9247 114.563 76.0491C114.78 76.1735 115.04 76.2358 115.346 76.2358C115.643 76.2358 115.902 76.1735 116.123 76.0491C116.344 75.9247 116.529 75.7599 116.677 75.5552C116.826 75.3503 116.947 75.1154 117.039 74.8505C117.131 74.5854 117.201 74.3145 117.25 74.0371C117.298 73.7601 117.33 73.4871 117.346 73.2179C117.362 72.9488 117.37 72.7019 117.37 72.4769C117.37 72.2601 117.362 72.0153 117.346 71.7418C117.33 71.4691 117.298 71.1938 117.25 70.9165C117.201 70.6394 117.131 70.3685 117.039 70.1034C116.947 69.8382 116.826 69.6034 116.677 69.3987C116.529 69.1938 116.344 69.0295 116.123 68.9048C115.902 68.7803 115.643 68.7181 115.346 68.7181C115.049 68.7181 114.79 68.7803 114.569 68.9048C114.348 69.0295 114.163 69.194 114.014 69.3987C113.865 69.6036 113.745 69.8382 113.653 70.1034C113.561 70.3685 113.49 70.6394 113.442 70.9165C113.394 71.1938 113.362 71.4691 113.346 71.7418C113.33 72.0153 113.322 72.2598 113.322 72.4769Z" fill="black"/>
<path d="M384.357 68.2075H386.815C387.112 68.2075 387.423 68.2417 387.749 68.3095C388.074 68.3781 388.371 68.4964 388.64 68.6651C388.909 68.8337 389.13 69.0645 389.303 69.3578C389.475 69.6511 389.562 70.0188 389.562 70.4601C389.562 70.8459 389.491 71.179 389.351 71.4602C389.21 71.7413 389.022 71.9724 388.785 72.1529C388.548 72.3337 388.275 72.4683 387.965 72.5567C387.656 72.6453 387.333 72.689 386.996 72.689H385.152V76.737H384.357V68.2075H384.357ZM385.152 71.9663H386.959C387.184 71.9663 387.405 71.9404 387.621 71.888C387.838 71.8357 388.031 71.7514 388.2 71.6349C388.368 71.5186 388.505 71.3639 388.609 71.1712C388.714 70.9784 388.766 70.7418 388.766 70.4601C388.766 70.1874 388.712 69.9543 388.603 69.7616C388.495 69.5686 388.354 69.4101 388.181 69.2857C388.009 69.1612 387.81 69.0708 387.585 69.0147C387.36 68.9583 387.135 68.9302 386.91 68.9302H385.151V71.9663H385.152Z" fill="black"/>
<path d="M398.983 68.2124H399.778V76.0193H403.754V76.7423H398.983V68.2124Z" fill="black"/>
<path d="M423.187 70.2845C423.187 69.9551 423.247 69.654 423.368 69.3807C423.488 69.1075 423.653 68.8749 423.862 68.6819C424.07 68.4891 424.317 68.3386 424.603 68.2301C424.887 68.1217 425.195 68.0676 425.524 68.0676C425.853 68.0676 426.161 68.1217 426.446 68.2301C426.731 68.3388 426.978 68.4894 427.187 68.6819C427.396 68.8749 427.56 69.1077 427.681 69.3807C427.801 69.6537 427.861 69.9551 427.861 70.2845C427.861 70.4854 427.829 70.6839 427.765 70.881C427.701 71.0778 427.61 71.2624 427.494 71.4351C427.378 71.608 427.235 71.7586 427.066 71.8868C426.898 72.0156 426.709 72.1078 426.5 72.1642V72.1761C426.773 72.2325 427.012 72.3307 427.217 72.4712C427.422 72.6121 427.594 72.7807 427.735 72.9773C427.876 73.1741 427.982 73.3909 428.054 73.6279C428.126 73.865 428.163 74.1119 428.163 74.3688C428.163 74.7546 428.097 75.102 427.964 75.411C427.832 75.7203 427.647 75.9831 427.41 76.2C427.173 76.4169 426.894 76.5855 426.572 76.7059C426.251 76.8265 425.901 76.8867 425.524 76.8867C425.147 76.8867 424.797 76.8265 424.476 76.7059C424.155 76.5852 423.876 76.4166 423.639 76.2C423.402 75.9831 423.217 75.7201 423.084 75.411C422.952 75.1017 422.886 74.7543 422.886 74.3688C422.886 74.1119 422.922 73.865 422.994 73.6279C423.066 73.3909 423.173 73.1743 423.314 72.9773C423.454 72.7807 423.627 72.6121 423.832 72.4712C424.037 72.3307 424.275 72.2325 424.548 72.1761V72.1642C424.339 72.1078 424.151 72.0156 423.982 71.8868C423.814 71.7586 423.671 71.6078 423.554 71.4351C423.438 71.2624 423.348 71.078 423.283 70.881C423.219 70.6839 423.187 70.4854 423.187 70.2845ZM423.681 74.3686C423.681 74.6258 423.725 74.8668 423.813 75.0916C423.902 75.3166 424.026 75.5134 424.187 75.682C424.347 75.8506 424.54 75.9852 424.765 76.0855C424.99 76.186 425.243 76.2363 425.524 76.2363C425.805 76.2363 426.058 76.1863 426.283 76.0855C426.508 75.9852 426.701 75.8506 426.861 75.682C427.022 75.5134 427.146 75.3166 427.235 75.0916C427.323 74.8668 427.367 74.6258 427.367 74.3686C427.367 74.0877 427.319 73.8325 427.223 73.6035C427.126 73.3747 426.995 73.1779 426.831 73.0133C426.666 72.8488 426.472 72.7223 426.247 72.6337C426.022 72.5453 425.781 72.5014 425.524 72.5014C425.267 72.5014 425.026 72.5456 424.801 72.6337C424.576 72.7223 424.381 72.8488 424.216 73.0133C424.052 73.1779 423.921 73.3747 423.825 73.6035C423.729 73.8325 423.681 74.0877 423.681 74.3686ZM423.982 70.2845C423.982 70.5013 424.02 70.7042 424.096 70.8929C424.173 71.0819 424.277 71.2467 424.41 71.3868C424.542 71.5275 424.703 71.6398 424.892 71.7241C425.08 71.8084 425.291 71.8505 425.524 71.8505C425.749 71.8505 425.958 71.8084 426.151 71.7241C426.343 71.6398 426.506 71.5275 426.638 71.3868C426.771 71.2464 426.875 71.0819 426.952 70.8929C427.028 70.7045 427.066 70.5013 427.066 70.2845C427.066 69.8106 426.92 69.4313 426.626 69.1461C426.333 68.8609 425.965 68.7182 425.524 68.7182C425.082 68.7182 424.715 68.8609 424.422 69.1461C424.128 69.4313 423.982 69.8106 423.982 70.2845Z" fill="black"/>
<path d="M436.861 75.8988L440.066 72.5136C440.21 72.3691 440.355 72.2142 440.499 72.0496C440.644 71.8853 440.774 71.7124 440.891 71.5316C441.007 71.3508 441.102 71.1601 441.174 70.9592C441.246 70.7586 441.282 70.5417 441.282 70.3086C441.282 69.8106 441.121 69.4211 440.8 69.1397C440.479 68.8589 440.074 68.7182 439.584 68.7182C439.142 68.7182 438.768 68.8467 438.463 69.1039C438.158 69.3612 437.961 69.6984 437.873 70.1159L437.03 70.0313C437.166 69.3728 437.467 68.881 437.933 68.5554C438.399 68.2301 438.961 68.0676 439.62 68.0676C439.949 68.0676 440.263 68.1176 440.56 68.2182C440.857 68.3187 441.118 68.4612 441.343 68.6458C441.568 68.8309 441.747 69.0577 441.879 69.3266C442.011 69.5961 442.078 69.9033 442.078 70.2484C442.078 70.5778 442.027 70.883 441.927 71.1639C441.827 71.445 441.694 71.7121 441.53 71.9651C441.365 72.218 441.176 72.4572 440.963 72.6819C440.751 72.9067 440.536 73.1317 440.319 73.3564L437.656 76.0916H442.138V76.7422H436.861V75.8988H436.861Z" fill="black"/>
<path d="M455.68 68.8626L452.282 76.7418H451.475L454.933 68.8626H450.836V68.212H455.679V68.8626H455.68Z" fill="black"/>
<path d="M469.655 68.8626L466.258 76.7418H465.451L468.908 68.8626H464.812V68.212H469.655V68.8626H469.655Z" fill="black"/>
<defs>
<linearGradient id="paint0_linear" x1="436.033" y1="25.8055" x2="447.934" y2="25.8055" gradientUnits="userSpaceOnUse">
<stop stop-color="#2484C6"/>
<stop offset="1" stop-color="#262262"/>
</linearGradient>
<linearGradient id="paint1_linear" x1="421.868" y1="26.0665" x2="474" y2="26.0665" gradientUnits="userSpaceOnUse">
<stop stop-color="#2484C6"/>
<stop offset="1" stop-color="#262262"/>
</linearGradient>
<linearGradient id="paint2_linear" x1="316.402" y1="26.0666" x2="368.535" y2="26.0666" gradientUnits="userSpaceOnUse">
<stop stop-color="#8B5E3C"/>
<stop offset="1" stop-color="#793028"/>
</linearGradient>
<linearGradient id="paint3_linear" x1="210.941" y1="26.0666" x2="263.059" y2="26.0666" gradientUnits="userSpaceOnUse">
<stop stop-color="#FFCD05"/>
<stop offset="0.9987" stop-color="#F15A29"/>
</linearGradient>
<linearGradient id="paint4_linear" x1="105.468" y1="26.0666" x2="157.6" y2="26.0666" gradientUnits="userSpaceOnUse">
<stop stop-color="#DEE21E"/>
<stop offset="0.9987" stop-color="#44B649"/>
</linearGradient>
<linearGradient id="paint5_linear" x1="-0.000152364" y1="26.0666" x2="52.133" y2="26.0666" gradientUnits="userSpaceOnUse">
<stop stop-color="#F7941D"/>
<stop offset="0.6077" stop-color="#F15A29"/>
<stop offset="1" stop-color="#ED1C24"/>
</linearGradient>
<linearGradient id="paint6_linear" x1="43.4363" y1="32.0886" x2="43.3651" y2="32.0886" gradientUnits="userSpaceOnUse">
<stop stop-color="#939598"/>
<stop offset="0.9987" stop-color="#414042"/>
</linearGradient>
<linearGradient id="paint7_linear" x1="43.4363" y1="32.0886" x2="43.3651" y2="32.0886" gradientUnits="userSpaceOnUse">
<stop stop-color="#939598"/>
<stop offset="0.9987" stop-color="#414042"/>
</linearGradient>
<linearGradient id="paint8_linear" x1="14.4804" y1="25.9003" x2="36.7069" y2="25.9003" gradientUnits="userSpaceOnUse">
<stop offset="0.1473" stop-color="#F15A29"/>
<stop offset="1" stop-color="#ED1C24"/>
</linearGradient>
<linearGradient id="paint9_linear" x1="148.903" y1="32.0886" x2="148.832" y2="32.0886" gradientUnits="userSpaceOnUse">
<stop stop-color="#939598"/>
<stop offset="0.9987" stop-color="#414042"/>
</linearGradient>
<linearGradient id="paint10_linear" x1="148.903" y1="32.0886" x2="148.832" y2="32.0886" gradientUnits="userSpaceOnUse">
<stop stop-color="#939598"/>
<stop offset="0.9987" stop-color="#414042"/>
</linearGradient>
<linearGradient id="paint11_linear" x1="148.903" y1="32.0886" x2="148.832" y2="32.0886" gradientUnits="userSpaceOnUse">
<stop stop-color="#939598"/>
<stop offset="0.9987" stop-color="#414042"/>
</linearGradient>
<linearGradient id="paint12_linear" x1="148.903" y1="32.0886" x2="148.832" y2="32.0886" gradientUnits="userSpaceOnUse">
<stop stop-color="#939598"/>
<stop offset="0.9987" stop-color="#414042"/>
</linearGradient>
<linearGradient id="paint13_linear" x1="254.37" y1="32.0886" x2="254.299" y2="32.0886" gradientUnits="userSpaceOnUse">
<stop stop-color="#939598"/>
<stop offset="0.9987" stop-color="#414042"/>
</linearGradient>
<linearGradient id="paint14_linear" x1="254.37" y1="32.0886" x2="254.299" y2="32.0886" gradientUnits="userSpaceOnUse">
<stop stop-color="#939598"/>
<stop offset="0.9987" stop-color="#414042"/>
</linearGradient>
<linearGradient id="paint15_linear" x1="254.37" y1="32.0886" x2="254.299" y2="32.0886" gradientUnits="userSpaceOnUse">
<stop stop-color="#939598"/>
<stop offset="0.9987" stop-color="#414042"/>
</linearGradient>
<linearGradient id="paint16_linear" x1="254.37" y1="32.0886" x2="254.299" y2="32.0886" gradientUnits="userSpaceOnUse">
<stop stop-color="#939598"/>
<stop offset="0.9987" stop-color="#414042"/>
</linearGradient>
<linearGradient id="paint17_linear" x1="359.837" y1="32.0886" x2="359.766" y2="32.0886" gradientUnits="userSpaceOnUse">
<stop stop-color="#939598"/>
<stop offset="0.9987" stop-color="#414042"/>
</linearGradient>
<linearGradient id="paint18_linear" x1="359.837" y1="32.0886" x2="359.766" y2="32.0886" gradientUnits="userSpaceOnUse">
<stop stop-color="#939598"/>
<stop offset="0.9987" stop-color="#414042"/>
</linearGradient>
<linearGradient id="paint19_linear" x1="359.837" y1="32.0886" x2="359.766" y2="32.0886" gradientUnits="userSpaceOnUse">
<stop stop-color="#939598"/>
<stop offset="0.9987" stop-color="#414042"/>
</linearGradient>
<linearGradient id="paint20_linear" x1="359.837" y1="32.0886" x2="359.766" y2="32.0886" gradientUnits="userSpaceOnUse">
<stop stop-color="#939598"/>
<stop offset="0.9987" stop-color="#414042"/>
</linearGradient>
<linearGradient id="paint21_linear" x1="465.304" y1="24.4705" x2="465.232" y2="24.4705" gradientUnits="userSpaceOnUse">
<stop stop-color="#939598"/>
<stop offset="0.9987" stop-color="#414042"/>
</linearGradient>
<linearGradient id="paint22_linear" x1="465.304" y1="24.4705" x2="465.232" y2="24.4705" gradientUnits="userSpaceOnUse">
<stop stop-color="#939598"/>
<stop offset="0.9987" stop-color="#414042"/>
</linearGradient>
<linearGradient id="paint23_linear" x1="137.956" y1="39.2507" x2="120.419" y2="31.1471" gradientUnits="userSpaceOnUse">
<stop stop-color="#DEE21E"/>
<stop offset="0.9987" stop-color="#44B649"/>
</linearGradient>
<linearGradient id="paint24_linear" x1="139.056" y1="17.9868" x2="133.964" y2="15.634" gradientUnits="userSpaceOnUse">
<stop stop-color="#DEE21E"/>
<stop offset="0.9987" stop-color="#44B649"/>
</linearGradient>
<linearGradient id="paint25_linear" x1="147.028" y1="23.5565" x2="136.604" y2="18.7398" gradientUnits="userSpaceOnUse">
<stop stop-color="#DEE21E"/>
<stop offset="0.9987" stop-color="#44B649"/>
</linearGradient>
<linearGradient id="paint26_linear" x1="151.376" y1="30.9869" x2="136.184" y2="23.9668" gradientUnits="userSpaceOnUse">
<stop stop-color="#DEE21E"/>
<stop offset="0.6882" stop-color="#44B649"/>
</linearGradient>
<linearGradient id="paint27_linear" x1="124.013" y1="17.9868" x2="129.104" y2="15.634" gradientUnits="userSpaceOnUse">
<stop stop-color="#DEE21E"/>
<stop offset="0.9987" stop-color="#44B649"/>
</linearGradient>
<linearGradient id="paint28_linear" x1="116.04" y1="23.5565" x2="126.464" y2="18.7398" gradientUnits="userSpaceOnUse">
<stop stop-color="#DEE21E"/>
<stop offset="0.9987" stop-color="#44B649"/>
</linearGradient>
<linearGradient id="paint29_linear" x1="111.691" y1="30.9869" x2="126.884" y2="23.9668" gradientUnits="userSpaceOnUse">
<stop stop-color="#DEE21E"/>
<stop offset="0.9987" stop-color="#44B649"/>
</linearGradient>
<linearGradient id="paint30_linear" x1="138.137" y1="38.8597" x2="128.861" y2="34.5735" gradientUnits="userSpaceOnUse">
<stop stop-color="#44B649"/>
<stop offset="0.9949" stop-color="#44B649"/>
</linearGradient>
<linearGradient id="paint31_linear" x1="140.691" y1="29.8156" x2="139.566" y2="29.2956" gradientUnits="userSpaceOnUse">
<stop stop-color="#44B649"/>
<stop offset="0.9949" stop-color="#44B649"/>
</linearGradient>
<linearGradient id="paint32_linear" x1="224.962" y1="24.9075" x2="249.327" y2="24.9075" gradientUnits="userSpaceOnUse">
<stop stop-color="#FFCD05"/>
<stop offset="0.9987" stop-color="#F15A29"/>
</linearGradient>
<linearGradient id="paint33_linear" x1="324.759" y1="24.5966" x2="359.82" y2="24.5966" gradientUnits="userSpaceOnUse">
<stop stop-color="#793028"/>
<stop offset="0.9102" stop-color="#793028"/>
</linearGradient>
<linearGradient id="paint34_linear" x1="352.183" y1="17.2382" x2="352.176" y2="17.2382" gradientUnits="userSpaceOnUse">
<stop stop-color="#939598"/>
<stop offset="0.9987" stop-color="#414042"/>
</linearGradient>
<linearGradient id="paint35_linear" x1="324.759" y1="24.5665" x2="335.835" y2="24.5665" gradientUnits="userSpaceOnUse">
<stop stop-color="#8B5E3C"/>
<stop offset="1" stop-color="#793028"/>
</linearGradient>
</defs>
</svg>
